<?xml version="1.0" standalone="no"?>
<!DOCTYPE svg PUBLIC "-//W3C//DTD SVG 20010904//EN"
 "http://www.w3.org/TR/2001/REC-SVG-20010904/DTD/svg10.dtd">
<svg version="1.0" xmlns="http://www.w3.org/2000/svg"
 width="2048.000000pt" height="2048.000000pt" viewBox="0 0 2048.000000 2048.000000"
 preserveAspectRatio="xMidYMid meet">

<g transform="translate(0.000000,2048.000000) scale(0.100000,-0.100000)"
fill="#000000" stroke="none">
<path d="M9893 16900 c-45 -18 -55 -89 -16 -105 10 -4 104 -6 208 -5 212 1
235 7 235 60 0 57 -12 60 -218 59 -103 0 -197 -4 -209 -9z"/>
<path d="M10677 16872 c-20 -22 -22 -52 -4 -76 10 -14 53 -22 212 -42 l200
-25 22 25 c23 27 21 56 -5 79 -11 10 -80 22 -192 36 -213 25 -213 25 -233 3z"/>
<path d="M9435 16852 c-47 -5 -328 -52 -346 -58 -26 -7 -43 -58 -30 -83 18
-33 50 -34 213 -6 229 40 221 37 236 68 23 47 -13 86 -73 79z"/>
<path d="M11467 16742 c-20 -22 -22 -52 -4 -74 6 -9 41 -24 77 -33 36 -9 122
-32 192 -52 121 -34 129 -35 153 -19 30 20 34 65 8 88 -20 17 -343 108 -385
108 -13 0 -32 -8 -41 -18z"/>
<path d="M8492 16640 c-84 -26 -164 -55 -177 -64 -45 -29 -23 -106 30 -106 24
0 356 108 372 122 18 15 16 63 -3 82 -23 24 -55 19 -222 -34z"/>
<path d="M12232 16507 c-51 -54 -29 -74 178 -163 182 -77 209 -83 231 -43 19
36 3 67 -49 93 -68 35 -311 136 -326 136 -7 0 -22 -10 -34 -23z"/>
<path d="M8175 16279 c-422 -41 -732 -308 -801 -689 -17 -95 -20 -1220 -4
-1251 13 -23 67 -26 96 -5 18 14 19 35 24 628 l5 613 27 76 c98 277 356 481
608 480 255 -1 512 -195 601 -455 39 -113 49 -191 49 -413 0 -191 0 -193 24
-208 21 -14 214 -15 1810 -13 l1786 3 1 -335 c3 -577 1 -540 23 -556 23 -17
60 -18 87 -4 18 10 19 29 19 684 0 425 -4 694 -11 732 -32 181 -109 326 -243
459 -134 133 -274 208 -461 246 -86 18 -170 19 -1820 18 -951 -1 -1770 -6
-1820 -10z m3555 -129 c275 -37 484 -188 600 -432 54 -115 70 -204 70 -394 l0
-156 -1745 4 -1745 3 0 130 c0 252 -37 416 -128 569 -52 88 -175 220 -234 251
-21 11 -38 22 -38 25 0 12 3131 12 3220 0z"/>
<path d="M12980 16150 c-26 -26 -25 -62 3 -87 12 -11 72 -46 134 -78 84 -43
118 -56 137 -51 33 8 51 41 38 70 -12 27 -249 166 -282 166 -5 0 -19 -9 -30
-20z"/>
<path d="M6919 15829 c-171 -130 -179 -137 -179 -169 0 -31 27 -60 57 -60 18
0 243 160 306 218 15 14 27 36 27 49 0 28 -33 63 -59 63 -10 0 -79 -46 -152
-101z"/>
<path d="M13526 15814 c-23 -22 -20 -62 7 -84 12 -11 81 -64 152 -119 142
-110 172 -121 201 -76 13 20 14 31 6 49 -6 13 -75 74 -154 135 -148 114 -179
128 -212 95z"/>
<path d="M6302 15297 c-103 -104 -132 -140 -132 -160 0 -31 31 -67 58 -67 9 0
79 62 155 138 143 144 158 169 121 206 -37 38 -64 22 -202 -117z"/>
<path d="M14120 15330 c-37 -37 -26 -56 113 -199 120 -123 135 -136 167 -136
28 0 37 5 48 28 12 24 11 31 -7 60 -11 17 -73 85 -139 150 -125 123 -145 134
-182 97z"/>
<path d="M5928 14883 c-14 -16 -60 -74 -102 -131 -83 -112 -95 -152 -56 -187
31 -28 60 -12 115 67 28 39 74 101 102 137 57 71 61 85 37 119 -22 31 -64 29
-96 -5z"/>
<path d="M10260 14790 c-23 -23 -26 -68 -7 -94 12 -16 66 -17 842 -16 752 0
831 2 847 17 22 19 23 62 4 89 -14 18 -36 19 -840 22 -816 2 -826 2 -846 -18z"/>
<path d="M14631 14761 c-12 -12 -21 -31 -21 -44 0 -13 48 -88 113 -177 120
-163 144 -183 179 -143 35 40 31 56 -36 149 -178 245 -192 258 -235 215z"/>
<path d="M9323 14680 c-33 -13 -60 -64 -68 -126 -6 -54 -7 -55 -65 -84 l-58
-29 -55 40 c-65 46 -104 56 -140 37 -14 -7 -66 -53 -116 -101 -110 -107 -113
-121 -49 -229 l41 -70 -26 -54 c-19 -38 -33 -54 -46 -54 -50 0 -121 -23 -145
-47 -25 -25 -26 -29 -26 -168 0 -137 1 -142 25 -165 15 -14 52 -29 97 -39 l72
-17 23 -58 24 -58 -36 -52 c-42 -61 -53 -112 -33 -149 7 -15 51 -65 97 -112
79 -80 87 -85 126 -85 32 0 56 9 102 39 l59 38 61 -25 61 -25 13 -66 c9 -48
20 -73 40 -93 27 -28 28 -28 164 -28 l137 0 28 28 c20 21 32 46 41 91 l12 63
55 24 c30 13 60 24 67 24 6 0 31 -14 54 -30 96 -70 123 -63 245 59 79 79 89
93 93 132 4 39 0 52 -36 107 l-41 62 23 57 23 57 69 13 c56 10 75 18 98 43 27
30 27 33 27 160 0 75 -5 139 -11 154 -14 30 -58 53 -133 67 -53 11 -55 13 -75
62 -12 27 -21 54 -21 58 0 5 15 30 34 57 75 104 62 145 -86 273 -80 69 -116
75 -183 34 -93 -56 -85 -54 -142 -28 -50 23 -52 25 -64 81 -25 125 -52 142
-221 141 -62 0 -123 -4 -135 -9z m227 -177 c24 -117 21 -113 85 -133 22 -7 66
-26 97 -41 32 -16 67 -29 79 -29 12 0 45 17 73 38 28 21 56 41 62 45 6 3 34
-17 62 -46 l51 -52 -45 -65 c-29 -42 -44 -72 -41 -85 7 -27 86 -207 99 -222 5
-6 43 -17 84 -24 l75 -12 -3 -81 -3 -81 -63 -7 c-71 -8 -107 -26 -117 -60 -4
-13 -23 -63 -42 -111 -35 -86 -35 -90 -20 -122 9 -18 30 -49 48 -69 l32 -37
-49 -53 c-27 -30 -54 -54 -60 -55 -6 -1 -29 13 -50 30 -22 17 -53 38 -71 45
-30 13 -36 12 -95 -20 -35 -19 -83 -40 -107 -47 -52 -15 -66 -35 -82 -116
l-12 -63 -72 0 -72 0 -17 79 -17 79 -94 37 c-52 20 -97 41 -100 46 -14 21 -69
8 -124 -31 -31 -22 -61 -40 -67 -40 -5 0 -32 22 -59 50 l-49 49 47 68 c26 38
47 74 47 81 0 16 -88 224 -100 236 -5 5 -44 16 -87 25 l-78 16 0 75 0 75 75
13 c70 13 110 32 110 55 0 5 18 47 40 94 22 47 40 95 40 107 0 11 -21 47 -46
80 l-46 58 43 45 c68 69 70 69 133 18 65 -54 89 -56 160 -16 28 16 71 35 95
42 51 15 65 35 81 114 7 33 14 63 17 68 2 4 35 7 73 7 l69 0 11 -57z"/>
<path d="M9363 14225 c-157 -43 -285 -162 -327 -304 -71 -242 78 -510 315
-566 87 -20 141 -19 229 6 144 40 234 112 292 236 60 126 59 262 -1 390 -88
184 -314 290 -508 238z m240 -152 c92 -41 155 -125 175 -233 26 -137 -43 -267
-175 -332 -124 -61 -263 -38 -360 59 -64 64 -87 123 -88 223 0 73 4 92 27 135
30 59 104 130 155 152 92 38 172 36 266 -4z"/>
<path d="M6615 14341 c-41 -18 -89 -66 -99 -98 -3 -10 -19 -97 -36 -193 -17
-96 -34 -178 -38 -182 -4 -3 -43 -18 -86 -33 -43 -14 -116 -44 -162 -65 -46
-22 -87 -40 -92 -40 -5 0 -69 43 -143 96 -74 53 -148 102 -166 110 -45 19 -97
17 -141 -5 -46 -23 -390 -351 -414 -395 -22 -38 -24 -126 -3 -165 7 -15 58
-90 111 -166 l97 -138 -41 -76 c-41 -78 -102 -239 -102 -271 0 -15 -27 -23
-187 -54 -199 -39 -235 -53 -269 -103 -20 -30 -21 -48 -26 -308 -4 -159 -2
-291 3 -311 14 -48 53 -90 102 -108 23 -8 105 -27 182 -41 77 -15 149 -28 160
-30 15 -3 26 -23 45 -87 13 -45 47 -129 76 -187 l51 -105 -108 -163 c-166
-249 -166 -248 64 -482 236 -238 273 -263 360 -247 19 3 102 54 191 116 86 61
160 110 162 110 3 0 46 -20 97 -44 51 -24 124 -54 162 -67 39 -12 73 -25 77
-28 3 -3 20 -85 38 -181 36 -204 55 -250 114 -285 43 -25 43 -25 315 -25 302
0 314 2 370 65 24 28 32 54 59 196 17 90 34 180 38 200 5 34 9 37 79 62 l73
26 138 -222 c124 -201 176 -284 379 -612 34 -55 90 -146 124 -202 59 -97 65
-103 96 -103 29 0 43 11 110 83 41 45 99 112 128 149 29 37 55 67 59 67 5 1
42 -51 85 -114 108 -162 136 -165 198 -17 l36 88 138 -4 c131 -4 140 -3 160
17 32 32 26 59 -34 155 -30 48 -55 89 -55 92 0 2 49 4 109 4 107 0 110 1 131
27 27 35 22 55 -39 152 -66 103 -204 329 -411 671 -217 360 -367 598 -396 630
l-23 25 37 112 c20 61 40 114 43 118 4 3 86 21 184 41 182 36 217 47 248 82
41 45 46 86 47 360 0 289 -3 308 -58 354 -40 33 -62 40 -259 79 l-162 32 -22
66 c-11 36 -46 119 -77 184 l-55 117 79 114 c145 210 146 212 142 285 l-4 63
-205 203 c-221 219 -229 224 -319 212 -36 -5 -165 -86 -308 -193 l-43 -33 -62
34 c-34 18 -110 50 -169 70 -59 20 -109 43 -112 51 -3 8 -19 89 -36 181 -36
199 -56 247 -119 280 -43 22 -51 23 -310 23 -236 0 -270 -2 -306 -19z m565
-131 c11 -20 37 -144 65 -310 9 -52 20 -105 25 -116 7 -17 36 -31 122 -59 62
-21 159 -62 215 -92 56 -29 112 -53 124 -53 12 0 92 50 178 112 86 61 168 116
182 122 25 9 36 0 208 -164 125 -120 181 -181 181 -196 0 -12 -54 -97 -120
-190 -66 -93 -120 -176 -120 -186 0 -9 28 -72 63 -140 35 -68 77 -168 95 -224
18 -56 40 -108 50 -116 9 -9 103 -32 212 -53 116 -22 202 -43 213 -52 20 -19
21 -54 10 -342 -6 -173 -7 -183 -27 -192 -12 -5 -106 -25 -210 -44 -186 -33
-226 -48 -226 -82 0 -36 -76 -243 -125 -337 -34 -67 -52 -113 -48 -124 4 -9
23 -42 44 -72 97 -143 189 -295 189 -310 0 -25 -346 -360 -371 -360 -11 0 -96
54 -188 120 -93 66 -177 120 -187 120 -10 0 -68 -24 -129 -54 -60 -30 -154
-69 -208 -87 -54 -18 -107 -39 -117 -48 -13 -12 -27 -69 -55 -226 -21 -115
-42 -216 -48 -222 -7 -10 -72 -13 -262 -13 -190 0 -255 3 -263 13 -5 6 -26
104 -47 217 -20 113 -42 213 -49 224 -7 11 -57 33 -126 56 -64 20 -161 61
-217 89 -57 28 -109 51 -117 51 -8 0 -47 -24 -87 -53 -141 -100 -264 -184
-282 -190 -14 -5 -59 32 -195 164 -97 94 -181 180 -186 191 -7 15 2 35 44 96
165 241 190 282 190 305 0 14 -27 77 -59 139 -32 62 -73 161 -91 218 -18 58
-40 113 -50 123 -12 13 -69 27 -207 52 -105 19 -198 37 -206 41 -8 3 -18 17
-21 30 -8 31 -7 425 1 476 5 37 6 37 77 52 39 8 134 26 210 40 97 17 145 30
157 43 9 10 27 54 39 98 28 106 65 196 111 277 22 36 39 79 39 95 0 20 -35 80
-115 198 -63 94 -115 180 -115 192 0 15 54 73 175 190 97 92 182 169 191 171
17 4 73 -31 232 -145 64 -46 126 -86 137 -89 13 -3 62 16 130 50 61 30 161 71
223 91 73 24 116 44 123 56 5 10 25 107 45 216 19 108 40 205 45 215 9 17 29
18 264 18 242 0 255 -1 265 -20z m1542 -3336 c67 -110 192 -316 279 -459 l157
-260 -186 -8 c-156 -6 -189 -11 -199 -24 -9 -11 -13 -56 -13 -132 0 -64 -3
-140 -7 -169 l-6 -54 -58 91 c-63 97 -96 127 -128 116 -18 -5 -181 -183 -252
-273 l-26 -33 -73 123 c-41 68 -167 272 -280 453 -266 426 -276 445 -259 456
48 31 70 21 285 -137 137 -101 184 -97 326 30 51 46 145 137 210 202 131 134
142 158 115 240 -8 24 -13 43 -10 41 2 -3 58 -94 125 -203z"/>
<path d="M6721 13155 c-291 -66 -529 -250 -656 -510 -69 -142 -90 -239 -89
-425 1 -138 4 -165 28 -243 120 -396 439 -662 832 -692 328 -26 672 135 853
399 51 73 119 225 141 310 71 280 3 596 -175 821 -111 140 -285 261 -455 317
-88 29 -107 31 -255 34 -114 3 -179 -1 -224 -11z m369 -132 c416 -85 706 -519
626 -936 -47 -245 -210 -465 -425 -576 -139 -71 -226 -93 -376 -95 -130 -1
-186 9 -298 55 -113 45 -177 89 -278 189 -86 85 -102 107 -147 200 -28 58 -59
134 -68 170 -24 89 -25 301 -2 385 55 201 164 364 313 470 199 141 417 187
655 138z"/>
<path d="M8135 10315 c-29 -28 -31 -45 -11 -83 29 -55 169 -277 180 -284 20
-14 56 -8 76 12 37 37 26 73 -66 222 -104 168 -128 185 -179 133z"/>
<path d="M5527 14313 c-61 -96 -157 -281 -157 -301 0 -28 34 -62 60 -62 32 0
59 37 140 194 73 142 75 146 60 173 -11 20 -25 29 -47 31 -28 3 -35 -2 -56
-35z"/>
<path d="M12615 14099 c-132 -89 -654 -439 -1160 -776 -506 -338 -928 -622
-937 -630 -10 -9 -18 -26 -18 -39 0 -22 209 -351 233 -366 7 -4 90 -8 185 -8
l172 0 0 -139 c0 -125 2 -141 21 -165 18 -23 27 -26 85 -26 l64 0 0 -920 0
-920 -64 2 c-96 2 -95 4 -98 -180 l-3 -156 -215 3 c-197 2 -218 1 -237 -16
-21 -17 -22 -26 -25 -256 -2 -197 0 -239 12 -252 13 -12 315 -15 2235 -20
2200 -7 2221 -6 2245 13 24 20 25 20 28 255 4 228 4 235 -17 256 -20 20 -30
21 -241 21 l-220 0 0 154 c0 185 -1 186 -112 186 l-68 0 0 915 0 915 74 0
c104 0 106 4 106 187 l0 143 172 2 172 3 29 40 c56 77 196 296 202 316 4 11 0
30 -10 45 -8 13 -176 132 -373 263 -196 131 -436 293 -532 358 -738 503 -1409
947 -1435 951 -25 3 -68 -22 -270 -159z m860 -384 c412 -277 702 -473 932
-630 49 -33 219 -149 380 -258 l292 -199 -48 -66 c-26 -37 -56 -81 -66 -98
l-18 -31 -401 269 c-912 611 -1143 767 -1388 933 -142 96 -265 175 -275 175
-15 0 -1448 -944 -1927 -1270 -82 -55 -155 -99 -162 -96 -7 3 -41 46 -75 97
-54 81 -59 93 -45 101 18 10 374 246 720 477 104 69 280 187 392 261 272 181
920 615 1018 683 l80 55 70 -50 c39 -27 274 -186 521 -353z m-204 -317 c215
-145 500 -337 634 -428 134 -91 370 -250 525 -354 154 -104 283 -193 286 -197
3 -5 -818 -9 -1852 -9 -1022 0 -1854 4 -1848 8 5 5 142 96 304 203 162 107
578 384 925 615 346 232 632 422 633 423 2 0 179 -117 393 -261z m-1341 -1218
l0 -100 -350 0 -350 0 0 100 0 100 350 0 350 0 0 -100z m450 -45 c0 -178 4
-185 105 -185 l65 0 0 -920 0 -920 -65 2 c-89 4 -101 -9 -98 -105 1 -40 0
-109 -3 -154 l-6 -83 -86 0 c-48 0 -117 3 -154 7 l-68 6 0 142 c0 182 -5 190
-107 190 l-68 0 -3 918 -2 917 68 0 c106 0 106 0 110 179 l3 151 155 0 154 0
0 -145z m850 45 l0 -100 -361 0 -361 0 3 93 c1 50 4 95 6 100 2 4 164 7 359 7
l354 0 0 -100z m450 -43 c0 -182 3 -187 101 -187 l69 0 0 -915 0 -915 -65 0
c-102 0 -105 -6 -105 -190 l0 -150 -160 0 -160 0 0 154 c0 185 -1 186 -112
186 l-68 0 0 915 0 915 73 0 c39 0 77 4 83 8 27 18 34 56 34 186 l0 136 155 0
155 0 0 -143z m850 43 l0 -100 -355 0 -355 0 0 100 0 100 355 0 355 0 0 -100z
m-2780 -1147 l0 -913 -178 0 -179 0 -2 905 c-1 498 0 908 2 912 3 5 84 8 181
8 l176 0 0 -912z m1174 907 l121 0 0 -910 0 -910 -182 0 -183 0 0 916 0 917
61 -7 c34 -3 116 -6 183 -6z m1374 0 l52 0 0 -910 0 -910 -180 0 -180 0 0 917
0 916 128 -6 c70 -4 151 -7 180 -7z m-2361 -2060 l-2 -100 -352 0 -352 0 -3
100 -3 100 357 0 357 0 -2 -100z m1293 0 l0 -100 -360 0 -360 0 0 100 0 100
360 0 360 0 0 -100z m1300 0 l0 -100 -360 0 -360 0 0 100 0 100 360 0 360 0 0
-100z m470 -375 l0 -135 -2125 0 -2125 0 0 135 0 135 2125 0 2125 0 0 -135z"/>
<path d="M12759 13325 c-157 -50 -272 -220 -255 -378 13 -125 96 -244 206
-296 48 -23 68 -26 155 -26 95 0 103 2 163 34 143 77 220 229 192 375 -24 123
-94 216 -205 274 -62 32 -184 40 -256 17z m189 -131 c152 -63 191 -261 76
-378 -60 -60 -171 -84 -247 -53 -154 65 -191 265 -70 379 67 64 163 85 241 52z"/>
<path d="M15062 14114 c-14 -9 -22 -25 -22 -42 0 -15 39 -102 86 -194 71 -141
89 -169 111 -174 33 -9 55 5 68 41 9 24 0 46 -75 192 -99 193 -118 212 -168
177z"/>
<path d="M15377 13402 c-10 -10 -17 -25 -17 -33 0 -8 27 -98 62 -201 64 -196
71 -207 122 -194 12 3 28 17 34 31 10 22 4 50 -49 208 -33 100 -68 188 -76
195 -24 17 -57 15 -76 -6z"/>
<path d="M15593 12648 c-18 -24 -21 -45 -13 -84 5 -22 20 -106 34 -189 27
-156 36 -175 81 -175 30 0 55 30 55 66 0 16 -14 101 -30 189 -16 88 -30 163
-30 167 0 31 -77 51 -97 26z"/>
<path d="M15701 11871 c-20 -20 -21 -27 -15 -218 7 -213 12 -233 61 -233 12 0
33 10 44 21 20 20 21 29 15 112 -3 50 -6 136 -6 192 0 110 -7 130 -52 140 -19
5 -32 1 -47 -14z"/>
<path d="M9006 11729 c-31 -25 -34 -61 -6 -89 20 -20 33 -20 979 -20 l960 0
15 22 c22 31 20 64 -4 88 -20 20 -33 20 -969 20 -944 0 -948 0 -975 -21z"/>
<path d="M8925 11205 c-29 -28 -31 -51 -9 -83 l15 -22 1005 0 c991 0 1004 0
1024 20 11 11 20 31 20 45 0 14 -9 34 -20 45 -20 20 -33 20 -1015 20 l-996 0
-24 -25z"/>
<path d="M15700 11102 c-19 -15 -24 -38 -41 -192 -25 -218 -25 -217 -4 -240
22 -25 46 -25 75 -2 19 16 24 37 41 182 25 217 24 235 -3 254 -29 20 -41 20
-68 -2z"/>
<path d="M4865 10924 c-20 -20 -17 -59 20 -279 24 -146 34 -165 82 -165 13 0
29 10 39 25 16 24 15 36 -11 203 -15 97 -32 188 -39 202 -15 31 -65 39 -91 14z"/>
<path d="M9297 10709 c-39 -23 -41 -86 -3 -111 6 -4 381 -8 833 -8 l822 0 15
22 c22 32 20 55 -9 83 l-24 25 -808 0 c-546 -1 -814 -4 -826 -11z"/>
<path d="M15576 10325 c-9 -9 -20 -33 -25 -53 -5 -20 -25 -100 -45 -177 -20
-77 -36 -148 -36 -157 0 -21 34 -58 54 -58 38 0 56 36 101 202 25 92 45 180
45 196 0 52 -59 81 -94 47z"/>
<path d="M9521 10143 c-24 -30 -20 -58 12 -86 19 -17 56 -18 666 -15 606 3
646 4 668 21 28 23 30 60 3 87 -20 20 -33 20 -674 20 l-655 0 -20 -27z"/>
<path d="M5027 10132 c-10 -10 -17 -30 -17 -44 0 -38 100 -360 118 -380 8 -10
26 -18 39 -18 27 0 63 33 63 57 0 10 -20 79 -44 153 -25 74 -50 154 -56 177
-6 23 -17 49 -26 58 -21 20 -57 19 -77 -3z"/>
<path d="M7182 9824 l-22 -15 0 -1393 c0 -1543 -2 -1490 65 -1654 114 -280
351 -478 650 -544 88 -20 139 -20 2480 -23 1478 -2 2422 0 2475 6 381 43 683
280 799 626 45 134 51 210 51 654 0 406 -1 420 -20 439 -20 20 -33 20 -2429
20 -2357 0 -2409 0 -2432 -19 l-24 -19 0 -469 c0 -453 -1 -470 -22 -546 -39
-136 -95 -230 -198 -333 -76 -77 -106 -98 -185 -137 -173 -85 -320 -106 -485
-68 -273 64 -470 250 -567 536 l-23 70 -5 1428 c-5 1400 -5 1429 -24 1443 -26
18 -56 18 -84 -2z m6363 -2291 c13 -475 -2 -613 -85 -771 -107 -207 -302 -357
-535 -413 l-90 -22 -2170 2 c-1193 2 -2171 4 -2173 6 -2 1 16 14 40 28 182
107 334 349 368 582 5 39 10 249 10 468 l0 397 2314 0 2314 0 7 -277z"/>
<path d="M9614 9782 c-19 -13 -34 -50 -27 -69 19 -55 5 -53 410 -53 360 0 374
1 393 20 11 11 20 31 20 45 0 14 -9 34 -20 45 -19 19 -33 20 -392 20 -205 0
-378 -4 -384 -8z"/>
<path d="M15268 9373 c-25 -29 -168 -342 -168 -368 0 -15 10 -31 25 -41 47
-31 65 -11 154 171 44 92 81 178 81 191 0 29 -33 64 -58 64 -11 0 -26 -8 -34
-17z"/>
<path d="M5306 9364 c-31 -31 -24 -52 97 -305 49 -101 73 -123 115 -108 12 5
27 19 33 31 8 20 -3 51 -80 211 -87 180 -91 187 -120 187 -16 0 -37 -7 -45
-16z"/>
<path d="M7947 9052 c-25 -27 -22 -78 5 -96 20 -14 229 -16 2023 -16 1794 0
2003 2 2023 16 28 19 29 67 2 94 -20 20 -33 20 -2028 20 -1934 0 -2010 -1
-2025 -18z"/>
<path d="M12750 8950 c-19 -19 -20 -33 -20 -394 l0 -375 26 -20 c33 -26 55
-26 83 -3 20 17 20 26 23 395 l3 379 -24 19 c-30 25 -66 24 -91 -1z"/>
<path d="M5686 8658 c-9 -12 -16 -32 -16 -44 0 -22 215 -334 230 -334 5 0 15
-3 24 -6 17 -7 66 37 66 59 0 12 -181 276 -225 330 -21 24 -61 22 -79 -5z"/>
<path d="M14910 8658 c-31 -11 -230 -305 -230 -340 0 -38 22 -60 55 -56 24 2
43 22 111 118 129 179 149 216 136 245 -15 32 -41 44 -72 33z"/>
<path d="M7962 8630 c-32 -14 -46 -55 -29 -88 l12 -27 2019 -3 c1868 -2 2021
-1 2038 15 22 20 24 66 2 87 -14 14 -199 16 -1883 16 -1027 0 -1928 2 -2002 5
-78 3 -143 1 -157 -5z"/>
<path d="M8670 8280 c-24 -24 -25 -48 -4 -78 l15 -22 1314 0 c1181 0 1315 2
1329 16 25 25 24 72 -2 92 -12 9 -293 12 -1324 12 -1295 0 -1308 0 -1328 -20z"/>
<path d="M6170 8030 c-40 -40 -28 -62 108 -206 70 -75 137 -140 150 -145 41
-16 82 13 82 57 0 13 -228 269 -268 302 -23 18 -49 15 -72 -8z"/>
<path d="M14276 7865 c-148 -156 -155 -170 -105 -207 24 -19 28 -19 56 -4 41
20 262 254 269 283 9 34 -20 73 -55 73 -23 0 -52 -25 -165 -145z"/>
<path d="M6716 7488 c-9 -12 -16 -28 -16 -34 0 -30 85 -104 120 -104 20 0 50
40 50 68 0 21 -10 37 -39 60 -48 39 -93 42 -115 10z"/>
<path d="M11900 3936 c-78 -22 -100 -35 -154 -86 -34 -32 -64 -73 -82 -113
-27 -59 -29 -69 -29 -197 1 -162 18 -219 93 -299 64 -68 137 -100 245 -108
249 -17 397 139 397 416 -1 195 -88 335 -238 381 -73 23 -165 25 -232 6z m198
-161 c26 -17 47 -43 63 -77 21 -45 24 -66 24 -167 0 -101 -3 -121 -22 -158
-32 -59 -75 -86 -145 -91 -70 -5 -108 9 -148 54 -85 98 -76 342 17 426 58 53
143 58 211 13z"/>
<path d="M5010 3785 c0 -82 -3 -261 -7 -397 l-6 -248 82 0 82 0 -3 300 c-2
164 0 296 3 292 4 -4 16 -45 28 -92 32 -120 131 -452 142 -472 8 -15 23 -18
77 -18 l67 0 83 273 c46 149 88 283 92 297 5 14 9 -102 9 -277 l1 -303 80 0
80 0 0 400 0 400 -74 0 c-40 0 -94 -3 -118 -6 l-46 -6 -77 -247 c-42 -135 -80
-257 -84 -271 -7 -21 -11 -14 -30 50 -12 41 -50 165 -84 274 l-62 200 -118 0
-117 1 0 -150z"/>
<path d="M5990 3657 c0 -324 5 -356 70 -429 57 -65 115 -90 226 -96 160 -8
263 44 315 160 23 51 24 62 27 351 l3 298 -83 -3 -83 -3 -5 -280 c-4 -251 -7
-283 -24 -311 -27 -45 -65 -64 -129 -64 -46 0 -61 5 -88 27 -56 48 -59 65 -59
363 l0 270 -85 0 -85 0 0 -283z"/>
<path d="M6797 3743 c-4 -108 -7 -288 -7 -400 l0 -203 80 0 80 0 0 278 1 277
20 -35 c11 -19 61 -109 110 -200 50 -91 111 -200 136 -242 l45 -78 94 0 94 0
0 400 0 400 -80 0 -80 0 0 -272 0 -273 -81 150 c-44 83 -112 205 -151 273
l-70 122 -93 0 -92 0 -6 -197z"/>
<path d="M7620 3540 l0 -400 79 0 78 0 6 68 c4 37 7 217 7 400 l0 332 -85 0
-85 0 0 -400z"/>
<path d="M7960 3541 l0 -401 85 0 85 0 0 134 0 133 88 6 c105 6 166 27 220 72
59 51 86 114 86 205 0 121 -46 186 -159 225 -37 13 -96 19 -227 23 l-178 5 0
-402z m328 239 c50 -22 66 -55 59 -118 -8 -74 -63 -112 -162 -112 l-55 0 0
125 0 125 58 0 c35 0 74 -8 100 -20z"/>
<path d="M8746 3814 c-52 -141 -226 -652 -226 -665 0 -5 40 -9 90 -9 l89 0 27
90 27 90 137 0 137 0 27 -90 28 -90 89 0 c49 0 89 4 89 9 0 5 -45 141 -101
303 -55 161 -115 336 -133 388 l-33 95 -100 3 -100 3 -47 -127z m188 -179 c24
-77 48 -148 51 -157 7 -16 -2 -18 -95 -18 -78 0 -101 3 -98 13 3 6 24 78 48
160 24 81 44 146 46 144 1 -1 23 -65 48 -142z"/>
<path d="M9350 3540 l0 -400 250 0 250 0 0 70 0 70 -167 2 -166 3 2 328 2 327
-85 0 -86 0 0 -400z"/>
<path d="M11043 3933 l-83 -4 0 -394 0 -395 85 0 85 0 0 150 0 150 45 0 46 0
67 -104 c37 -58 79 -125 94 -150 l28 -46 96 0 c77 0 95 3 91 14 -10 25 -195
302 -211 315 -20 16 -21 31 -3 31 26 0 97 60 116 99 68 131 11 278 -121 315
-58 17 -206 25 -335 19z m252 -148 c83 -40 70 -163 -21 -201 -19 -8 -55 -14
-83 -14 -59 0 -59 0 -53 133 l4 97 60 0 c33 0 74 -7 93 -15z"/>
<path d="M12608 3933 l-118 -4 0 -394 0 -395 245 0 245 0 0 70 0 70 -155 0
-154 0 -6 33 c-3 17 -5 61 -3 97 l3 65 140 2 140 1 0 67 0 67 -137 -1 c-138
-2 -138 -2 -138 21 0 13 -3 53 -7 91 l-6 67 162 0 161 0 0 69 c0 54 -4 70 -16
75 -15 6 -101 5 -356 -1z"/>
<path d="M13906 3930 c-1 -3 -2 -135 -2 -295 1 -273 2 -293 22 -336 31 -66 77
-113 136 -140 46 -20 69 -24 163 -23 93 0 118 3 160 22 65 30 108 73 137 136
22 49 23 63 26 349 l4 298 -84 -3 -83 -3 -5 -280 c-5 -259 -7 -283 -26 -315
-25 -44 -60 -61 -124 -62 -61 0 -106 24 -135 72 -19 33 -20 55 -23 313 l-3
278 -80 -2 c-44 -2 -81 -6 -83 -9z"/>
<path d="M14798 3933 l-88 -4 0 -394 0 -395 85 0 85 0 0 150 0 150 45 0 c34 0
48 -5 60 -22 9 -13 53 -79 98 -148 l82 -125 93 -3 c50 -1 92 1 92 5 0 5 -17
33 -37 63 -20 30 -70 106 -110 168 l-72 114 47 31 c81 55 118 159 92 257 -16
61 -74 115 -143 134 -58 16 -198 24 -329 19z m221 -139 c51 -11 81 -46 81 -97
0 -81 -60 -127 -165 -127 l-55 0 0 115 0 115 54 0 c29 0 67 -3 85 -6z"/>
<path d="M10270 3535 l0 -395 85 0 85 0 0 138 0 137 88 1 c117 0 182 23 242
83 53 53 70 100 70 192 0 78 -23 132 -73 176 -59 52 -116 63 -319 63 l-178 0
0 -395z m346 242 c53 -27 70 -106 34 -164 -27 -46 -68 -63 -145 -63 l-65 0 0
126 0 127 73 -5 c39 -3 86 -12 103 -21z"/>
<path d="M13110 3536 l0 -396 144 0 c79 0 165 4 192 9 183 35 292 138 323 305
38 207 -32 367 -194 443 -59 27 -65 28 -262 31 l-203 4 0 -396z m333 250 c103
-31 147 -93 155 -217 11 -180 -71 -277 -240 -287 l-78 -5 0 262 0 261 58 0
c33 0 79 -6 105 -14z"/>
<path d="M15420 3535 l0 -395 250 0 250 0 0 70 0 70 -165 0 -166 0 3 98 3 97
143 3 142 3 0 64 0 65 -139 0 c-77 0 -142 4 -145 9 -3 4 -3 45 1 90 l6 81 153
0 154 0 0 70 0 70 -245 0 -245 0 0 -395z"/>
</g>
</svg>
