<?xml version="1.0" standalone="no"?>
<!DOCTYPE svg PUBLIC "-//W3C//DTD SVG 20010904//EN"
 "http://www.w3.org/TR/2001/REC-SVG-20010904/DTD/svg10.dtd">
<svg version="1.0" xmlns="http://www.w3.org/2000/svg"
 width="2048.000000pt" height="2048.000000pt" viewBox="0 0 2048.000000 2048.000000"
 preserveAspectRatio="xMidYMid meet">

<g transform="translate(0.000000,2048.000000) scale(0.100000,-0.100000)"
fill="#000000" stroke="none">
<path d="M0 10240 l0 -10240 10240 0 10240 0 0 10240 0 10240 -10240 0 -10240
0 0 -10240z m8836 9398 c17 -18 69 -85 117 -148 254 -341 595 -714 902 -989
116 -103 364 -298 491 -385 94 -64 120 -86 122 -107 2 -14 -3 -31 -11 -37 -13
-11 -160 -41 -409 -83 l-127 -22 22 -31 c30 -42 664 -677 807 -808 l115 -105
135 -17 c728 -90 1345 -272 1940 -571 209 -105 458 -241 519 -284 46 -33 106
-64 93 -48 -11 12 -2 23 54 67 158 124 247 240 303 392 48 129 55 178 55 343
0 153 -2 164 -31 242 l-30 83 41 31 c58 45 113 118 144 191 20 50 26 80 26
143 1 44 -3 96 -7 116 l-9 35 81 18 c303 65 581 31 876 -108 199 -94 432 -272
518 -396 17 -25 51 -63 75 -84 135 -121 292 -377 368 -601 28 -84 31 -88 90
-131 34 -24 95 -79 136 -123 150 -162 236 -369 264 -636 l6 -59 14 32 c28 66
109 179 179 248 183 181 458 262 710 209 200 -43 400 -197 499 -385 l36 -67
82 -6 c167 -11 322 -82 443 -202 82 -82 131 -168 171 -300 22 -75 26 -110 27
-210 0 -155 -21 -252 -81 -375 -25 -52 -47 -98 -49 -101 -2 -3 18 -11 45 -17
101 -26 213 -111 281 -213 133 -199 101 -464 -75 -628 -107 -101 -220 -141
-394 -143 -58 0 -135 3 -172 7 -50 5 -68 4 -68 -4 0 -7 4 -10 9 -6 26 15 170
-211 212 -333 54 -155 72 -347 45 -482 -17 -85 -47 -183 -72 -231 -7 -14 -46
-60 -86 -102 l-73 -75 -50 8 c-121 21 -251 7 -365 -38 -128 -51 -222 -120
-346 -255 -6 -7 -41 -64 -78 -127 l-68 -114 17 -48 c31 -87 -1 -150 -83 -169
-50 -11 -101 -2 -250 45 -170 54 -214 48 -312 -39 l-54 -48 -120 7 c-67 4
-138 9 -158 12 l-37 6 5 -33 c3 -19 6 -473 7 -1009 l2 -975 145 -6 c420 -18
794 -192 1092 -508 140 -149 236 -297 325 -501 189 -432 175 -995 -34 -1414
-19 -37 -33 -69 -31 -70 2 -2 46 -10 98 -18 183 -30 335 -108 476 -248 217
-214 344 -528 344 -855 0 -584 -372 -1069 -914 -1192 -75 -17 -366 -24 -417
-10 -17 4 -52 39 -97 96 -39 49 -99 112 -134 140 -77 63 -230 141 -321 166
-60 16 -73 24 -111 69 -50 58 -119 164 -164 250 l-31 59 -5 -34 c-7 -44 -30
-243 -56 -484 -12 -104 -29 -269 -40 -365 -11 -96 -24 -220 -30 -276 l-11
-100 30 -65 c65 -140 77 -336 31 -499 -59 -206 -252 -406 -458 -474 -213 -71
-414 -52 -596 54 l-68 40 -113 0 c-111 0 -113 -1 -171 -35 -131 -79 -293 -115
-434 -97 -171 22 -291 77 -413 191 -73 69 -161 193 -178 252 -11 36 -11 36
-53 28 -22 -5 -165 -8 -316 -9 l-275 0 -18 -37 c-58 -115 -186 -262 -308 -353
-261 -194 -602 -251 -914 -153 -258 81 -484 268 -617 512 l-17 31 -1013 -1
-1013 -1 -35 -56 c-50 -82 -202 -230 -290 -284 -170 -105 -332 -151 -530 -151
-104 0 -142 5 -225 27 -242 65 -438 205 -567 403 l-41 63 -69 0 c-62 0 -69 -2
-77 -22 -17 -45 -108 -174 -167 -237 -123 -134 -308 -245 -494 -297 -129 -35
-329 -44 -451 -19 -294 59 -554 242 -714 501 l-40 65 -85 4 c-81 4 -193 31
-252 61 -14 8 -55 36 -90 62 -60 47 -67 49 -143 55 -136 10 -183 31 -427 188
-180 116 -297 189 -303 189 -4 0 3 -13 14 -29 12 -16 36 -55 54 -88 19 -32 68
-117 110 -189 77 -131 91 -176 65 -202 -9 -9 -90 -12 -304 -12 l-292 0 -4
-118 c-3 -102 -7 -123 -30 -167 -93 -178 -296 -212 -426 -71 -59 64 -82 136
-82 256 l0 100 -299 0 c-299 0 -300 0 -315 22 -9 12 -16 27 -16 33 0 6 57 105
126 221 70 115 174 290 232 389 57 99 121 207 142 240 36 59 192 325 257 438
52 92 54 90 -102 110 -147 18 -303 63 -441 127 -320 148 -539 431 -605 780
-15 83 -16 286 0 370 48 261 194 507 394 667 l39 31 -64 32 c-175 89 -327 200
-496 364 -67 65 -147 151 -177 190 l-54 71 -99 17 c-126 22 -308 82 -447 147
-466 220 -801 651 -917 1182 -20 93 -23 131 -22 354 0 235 1 258 27 380 138
650 574 1173 1177 1414 257 103 439 135 724 129 l188 -5 52 81 c29 45 115 189
193 321 77 132 159 269 182 304 22 35 41 67 41 70 0 4 -24 12 -53 19 -74 17
-101 40 -105 89 -3 35 7 54 100 194 57 85 113 179 125 210 20 53 21 64 11 170
-5 63 -8 193 -5 289 4 155 8 188 36 288 89 329 263 537 583 698 104 52 107 55
118 96 6 24 22 81 35 127 14 47 23 87 20 89 -2 2 -26 -12 -53 -32 -73 -53
-167 -94 -271 -116 -91 -20 -404 -61 -926 -120 -143 -17 -316 -37 -385 -46
-193 -25 -303 -11 -446 57 -183 87 -295 284 -281 496 14 203 130 385 304 476
l63 32 0 91 c0 371 284 666 640 666 166 0 307 -59 427 -179 70 -69 74 -71 105
-62 48 13 116 11 183 -7 180 -46 294 -195 311 -404 l7 -78 58 -1 c105 0 189
-33 265 -103 55 -50 109 -145 124 -216 7 -29 13 -52 15 -52 2 0 29 46 60 101
97 174 232 373 341 502 l33 39 -33 51 c-175 274 -281 684 -262 1013 7 109 36
306 55 373 9 30 8 36 -17 55 -77 60 -161 181 -190 276 -11 37 -17 89 -17 160
0 90 4 116 28 181 15 41 42 93 60 114 l32 39 1 146 c1 177 20 259 94 406 130
259 358 428 660 490 65 13 113 15 205 11 240 -11 421 -86 583 -241 l63 -60
103 18 c347 59 694 28 1034 -91 106 -37 318 -143 405 -201 110 -75 220 -165
330 -271 53 -52 99 -92 100 -90 17 21 113 200 190 354 214 429 370 852 511
1387 50 189 70 247 86 260 31 25 42 23 76 -14z m3839 -1510 c62 -32 139 -113
168 -176 17 -37 22 -66 22 -137 0 -78 -4 -97 -27 -140 -32 -62 -113 -139 -176
-168 -37 -17 -66 -22 -137 -22 -78 0 -97 4 -146 28 -264 129 -249 519 25 627
74 29 201 24 271 -12z m-1711 -189 c81 -55 99 -159 41 -235 -99 -130 -306 -52
-293 110 11 130 147 197 252 125z m5464 -352 c47 -43 49 -147 3 -147 -11 0
-31 14 -44 31 l-25 32 -87 -147 c-48 -81 -98 -154 -111 -162 -92 -61 -245 16
-230 115 13 84 116 117 209 67 26 -14 50 -26 52 -26 2 0 38 55 80 123 101 159
102 160 153 114z m-4640 -116 c17 -12 38 -41 47 -65 22 -56 9 -102 -41 -146
-29 -25 -43 -30 -88 -30 -88 0 -143 61 -133 147 11 103 130 155 215 94z m5714
-998 c52 -59 15 -143 -63 -143 -31 0 -69 44 -69 80 0 64 92 108 132 63z
m-13505 -123 c43 -26 64 -61 65 -107 1 -58 -26 -100 -77 -125 -39 -19 -49 -20
-84 -10 -57 18 -101 71 -101 125 0 105 110 171 197 117z m13687 -61 c33 -26
37 -88 6 -119 -48 -48 -130 -9 -130 61 0 42 35 79 75 79 12 0 34 -9 49 -21z
m-14006 -389 c70 -32 153 -91 173 -124 24 -40 24 -102 0 -142 -21 -35 -75 -64
-118 -64 -42 0 -200 96 -229 140 -47 68 -23 157 51 191 51 23 70 23 123 -1z
m14871 -4084 c20 -18 253 -362 384 -568 20 -32 38 -58 40 -58 2 0 109 -36 238
-80 241 -83 269 -98 269 -147 0 -40 -14 -57 -153 -184 l-132 -121 -5 -205 -5
-205 -28 -24 c-48 -41 -84 -33 -350 71 -133 53 -258 102 -277 109 -39 15 -14
23 -434 -134 -239 -89 -262 -92 -307 -44 -24 25 -24 30 -29 246 l-5 220 -135
122 c-110 99 -136 128 -138 152 -5 56 17 68 278 158 l244 83 194 289 c106 159
201 297 210 308 23 26 73 46 97 39 11 -3 31 -15 44 -27z m-16071 -4911 c77
-33 122 -102 122 -187 -1 -161 -183 -248 -322 -155 -44 31 -78 99 -78 159 0
142 146 238 278 183z m16444 -41 c34 -17 56 -48 69 -98 24 -87 -55 -186 -148
-186 -144 0 -206 169 -100 269 45 41 116 47 179 15z m211 -515 c50 -23 62 -95
22 -134 -51 -52 -139 -14 -139 60 0 29 7 43 28 61 30 26 53 30 89 13z m-16071
-1401 c57 -17 131 -87 158 -150 76 -177 -34 -362 -228 -385 -123 -14 -253 72
-287 191 -20 69 -15 139 16 203 25 51 105 126 151 140 46 15 143 15 190 1z
m8758 -3015 c90 -31 212 -115 273 -188 118 -142 163 -330 121 -511 -39 -169
-152 -308 -319 -391 -120 -60 -66 -58 -1330 -58 l-1160 0 -64 23 c-118 43
-181 81 -255 155 -115 116 -166 239 -166 404 0 278 198 524 465 577 58 12 271
14 1220 13 l1150 -2 65 -22z m-3948 -440 l148 -147 148 147 c81 81 154 147
163 147 21 0 39 -20 39 -45 0 -13 -52 -72 -145 -165 l-145 -145 146 -146 c129
-129 145 -149 142 -175 -2 -22 -9 -30 -28 -32 -20 -2 -53 24 -175 142 l-150
144 -151 -149 c-83 -82 -155 -149 -162 -149 -16 0 -42 29 -42 48 0 9 65 82
145 162 80 80 145 148 145 151 0 3 -63 70 -140 149 -139 142 -157 169 -128
198 7 7 19 12 27 12 8 0 81 -66 163 -147z"/>
<path d="M5223 18164 c-24 -24 -25 -29 -19 -107 3 -45 8 -165 11 -267 3 -102
8 -209 11 -237 l5 -53 -88 0 c-102 0 -162 -22 -233 -87 -52 -46 -70 -86 -70
-155 0 -66 32 -118 93 -150 58 -31 182 -32 248 -2 60 28 116 78 141 128 20 39
20 46 9 281 -6 132 -13 273 -16 313 -5 81 -12 77 85 62 90 -15 155 -37 190
-66 27 -24 31 -24 58 -10 16 8 32 23 36 31 11 29 6 91 -9 136 -32 89 -100 129
-260 153 -53 8 -105 21 -114 29 -32 27 -51 28 -78 1z"/>
<path d="M8350 17552 c-8 -3 -69 -20 -135 -37 -66 -18 -120 -36 -120 -41 0
-12 149 -294 155 -294 3 0 30 64 59 143 29 78 61 163 72 190 17 44 18 47 1 46
-9 0 -24 -3 -32 -7z"/>
<path d="M10840 15997 c-3 -2 -313 -10 -690 -16 -377 -7 -728 -17 -780 -22
-195 -20 -359 -100 -510 -249 -105 -104 -134 -147 -292 -440 -52 -96 -135
-247 -183 -335 -48 -88 -128 -234 -178 -325 -49 -91 -108 -196 -130 -234 l-40
-70 24 -19 c27 -21 152 -90 1114 -616 172 -95 264 -140 273 -134 7 4 62 96
121 203 59 107 183 332 275 500 93 168 222 400 287 517 66 116 119 219 119
228 0 20 -184 353 -248 449 -198 295 -550 449 -873 381 -40 -9 -74 -14 -76
-12 -4 5 113 58 182 82 30 11 90 20 150 22 131 6 256 -21 380 -81 159 -77 261
-168 374 -336 71 -104 842 -1387 848 -1409 2 -11 -27 -33 -99 -74 -422 -236
-432 -248 -236 -274 504 -66 1465 -185 1512 -186 l60 -2 119 255 c65 140 203
440 307 665 103 226 209 455 235 510 48 101 50 126 11 133 -9 2 -116 -54 -238
-123 -209 -119 -224 -126 -236 -108 -7 10 -111 182 -230 382 -232 389 -279
453 -412 553 -82 63 -222 131 -325 160 -71 19 -111 22 -345 26 -146 2 -267 2
-270 -1z m593 -76 c166 -44 299 -121 417 -241 66 -67 101 -120 301 -455 125
-209 232 -390 238 -402 7 -13 18 -23 26 -23 13 0 85 38 330 174 54 30 101 54
102 52 2 -2 -21 -54 -51 -117 -30 -63 -148 -316 -261 -564 -378 -823 -346
-757 -369 -751 -12 2 -356 46 -766 96 -410 50 -753 94 -762 98 -12 5 44 42
195 128 116 66 215 127 220 135 7 11 -81 164 -328 574 -186 308 -363 603 -393
655 -81 141 -193 306 -258 383 -73 86 -151 145 -272 205 l-95 47 234 7 c483
16 1031 26 1219 23 160 -2 209 -7 273 -24z m-1974 -161 c49 -12 124 -41 183
-71 122 -63 242 -172 322 -293 68 -103 226 -390 226 -411 0 -9 -26 -62 -59
-118 -32 -56 -136 -244 -231 -417 -327 -597 -473 -859 -479 -856 -3 2 -127 70
-276 151 -496 272 -1025 564 -1033 570 -5 4 27 66 148 285 59 107 190 346 290
530 259 475 281 505 425 576 151 74 321 93 484 54z"/>
<path d="M17070 15444 c-8 -3 -44 -14 -80 -26 -250 -80 -432 -315 -448 -579
-6 -111 16 -216 70 -328 33 -68 56 -101 122 -165 131 -131 267 -186 461 -186
319 0 576 208 643 520 18 80 20 84 53 96 55 20 67 17 84 -22 8 -20 20 -34 27
-32 7 3 49 48 93 102 l79 98 -24 19 c-37 28 -211 111 -218 104 -4 -3 -5 -28
-4 -55 2 -54 7 -50 -70 -65 -13 -2 -21 10 -33 54 -31 105 -84 190 -175 281
-136 136 -269 190 -465 189 -55 0 -107 -3 -115 -5z m295 -303 c38 -19 79 -49
100 -74 36 -41 75 -107 75 -125 0 -6 -30 -15 -67 -22 -63 -12 -68 -12 -78 6
-23 41 -82 85 -135 101 -133 39 -269 -43 -299 -179 -18 -79 9 -158 76 -223 90
-87 236 -79 335 19 36 35 39 36 95 30 86 -9 86 -9 67 -46 -31 -60 -121 -144
-187 -174 -55 -26 -73 -29 -157 -29 -87 0 -101 3 -161 32 -80 39 -150 111
-187 191 -23 49 -27 70 -27 152 0 83 4 103 28 155 93 200 326 282 522 186z"/>
<path d="M16974 13688 c19 -29 49 -87 67 -129 27 -64 37 -78 64 -88 39 -14 95
-15 95 -1 0 6 -10 8 -24 4 -14 -3 -33 -1 -43 5 -15 9 -13 10 11 5 21 -5 27 -4
22 5 -4 6 -18 11 -31 11 -26 0 -41 15 -25 25 5 3 10 20 10 36 0 18 -4 28 -10
24 -5 -3 -10 -1 -10 4 0 6 10 11 23 11 18 0 19 2 7 10 -26 18 26 49 69 43 20
-3 34 -3 31 -1 -5 6 -271 88 -283 88 -4 0 8 -24 27 -52z m171 -28 c-3 -5 -12
-10 -18 -10 -7 0 -6 4 3 10 19 12 23 12 15 0z m-39 -116 c-4 -9 -9 -15 -11
-12 -3 3 -3 13 1 22 4 9 9 15 11 12 3 -3 3 -13 -1 -22z"/>
<path d="M17156 13633 c-15 -15 -4 -21 23 -13 16 4 32 6 35 4 3 -2 4 -1 1 3
-7 9 -52 13 -59 6z"/>
<path d="M17278 13633 c7 -3 16 -2 19 1 4 3 -2 6 -13 5 -11 0 -14 -3 -6 -6z"/>
<path d="M17310 13616 c0 -2 11 -6 25 -8 14 -3 25 -1 25 3 0 5 -11 9 -25 9
-14 0 -25 -2 -25 -4z"/>
<path d="M17400 13588 c14 -6 38 -12 54 -13 16 -2 31 -8 35 -13 4 -7 12 -7 20
-3 10 6 4 11 -20 17 -19 5 -39 9 -46 9 -6 0 -15 4 -19 8 -4 4 -17 7 -28 6 -19
0 -19 -1 4 -11z"/>
<path d="M17540 13552 c0 -4 19 -13 43 -20 30 -9 43 -19 44 -32 1 -13 -3 -17
-13 -13 -8 3 -14 11 -14 19 0 10 -12 14 -39 14 -22 0 -41 3 -44 8 -2 4 -2 1
-1 -5 4 -14 -7 -17 -22 -5 -5 4 2 -4 15 -17 16 -17 34 -24 57 -23 33 1 34 0
34 -38 0 -40 0 -40 -39 -40 -22 0 -41 -5 -44 -12 -3 -10 -9 -10 -26 0 -25 14
-71 16 -71 2 0 -5 15 -10 34 -10 19 0 36 -5 38 -12 2 -6 21 -11 44 -10 25 1
34 -2 25 -7 -16 -10 9 -18 254 -82 76 -19 113 -29 163 -44 13 -5 22 -3 22 4 0
6 -7 11 -15 11 -8 0 -15 5 -15 10 0 6 13 10 29 10 17 0 33 -4 36 -10 3 -5 15
-10 26 -10 26 0 24 -16 -3 -25 -27 -8 -26 -8 72 -34 41 -11 100 -27 130 -35
30 -8 56 -14 58 -11 12 12 -48 86 -62 77 -22 -13 -48 -12 -63 4 -9 8 -22 13
-30 10 -9 -4 -17 1 -20 13 -3 11 -15 22 -26 26 -17 6 -19 8 -6 12 11 3 15 12
11 28 -2 15 0 25 7 25 7 0 10 -4 7 -9 -3 -5 1 -11 8 -14 10 -4 14 0 13 12 -1
14 -7 18 -27 15 -14 -3 -31 -5 -37 -6 -7 -1 -13 -6 -13 -12 0 -6 -12 -17 -27
-24 -20 -9 -24 -9 -15 0 7 7 12 20 12 30 0 10 7 18 15 18 21 0 19 17 -2 24
-10 2 -2 2 18 0 24 -4 39 -1 47 9 10 12 3 16 -47 27 -33 7 -65 9 -72 5 -7 -5
-10 -4 -6 2 4 5 -60 30 -151 58 -86 26 -190 58 -231 71 -83 27 -81 27 -81 16z
m519 -161 c10 -7 7 -9 -12 -8 -14 1 -23 5 -20 10 6 9 15 9 32 -2z"/>
<path d="M17490 13430 c19 -13 30 -13 30 0 0 6 -10 10 -22 10 -19 0 -20 -2 -8
-10z"/>
<path d="M17350 13410 c8 -5 20 -10 25 -10 6 0 3 5 -5 10 -8 5 -19 10 -25 10
-5 0 -3 -5 5 -10z"/>
<path d="M18166 13295 c-3 -8 -1 -15 4 -15 6 0 10 7 10 15 0 8 -2 15 -4 15 -2
0 -6 -7 -10 -15z"/>
<path d="M12845 12949 c-297 -171 -616 -353 -708 -406 -132 -75 -168 -99 -164
-113 7 -26 792 -1349 824 -1388 18 -22 20 -22 283 -24 293 -1 398 10 532 58
224 80 374 209 475 409 l45 90 -6 -56 c-14 -135 -89 -274 -215 -400 -75 -74
-100 -92 -201 -141 -212 -104 -192 -102 -885 -105 -330 -2 -754 -4 -943 -6
l-342 -2 0 235 c0 129 -3 252 -6 272 -9 52 -39 61 -71 22 -13 -16 -224 -308
-471 -648 -246 -341 -464 -642 -484 -670 -21 -28 -38 -57 -38 -64 0 -8 55 -89
122 -180 161 -221 372 -512 588 -812 314 -438 301 -421 330 -418 l25 3 3 268
2 267 433 0 c453 0 575 7 695 40 193 53 412 208 521 368 60 89 862 1576 904
1677 100 239 119 437 63 656 -32 128 -55 175 -213 448 -589 1017 -534 923
-548 928 -5 1 -253 -137 -550 -308z"/>
<path d="M8345 13205 c-5 -3 -228 -32 -495 -65 -633 -79 -1092 -140 -1102
-146 -4 -3 -8 -14 -8 -24 0 -23 10 -29 258 -175 100 -59 182 -112 182 -119 0
-6 -6 -20 -13 -31 -15 -22 -154 -270 -324 -580 -168 -306 -196 -390 -196 -605
0 -143 17 -233 66 -355 29 -70 223 -403 592 -1015 61 -102 160 -266 219 -366
189 -317 336 -451 592 -541 151 -52 186 -54 944 -51 l695 3 3 841 c2 666 -1
843 -10 850 -7 5 -362 8 -805 6 l-791 -3 -105 -177 c-208 -351 -233 -401 -268
-531 -29 -104 -37 -318 -16 -418 27 -125 89 -254 165 -344 19 -21 31 -39 27
-39 -17 0 -98 65 -153 124 -133 142 -202 386 -173 607 25 188 71 303 238 590
50 84 205 354 345 599 238 415 375 650 383 659 2 2 95 -49 207 -112 270 -153
274 -155 294 -135 18 18 13 31 -126 333 -80 172 -265 579 -478 1045 -75 165
-81 175 -108 177 -16 1 -33 0 -39 -2z m95 -192 c34 -76 82 -181 107 -232 24
-52 41 -101 38 -109 -2 -7 0 -10 5 -7 6 3 11 1 12 -4 4 -30 2 -36 -12 -36 -10
0 -15 -10 -14 -32 0 -18 -3 -30 -8 -27 -5 4 -8 27 -7 52 l3 47 -42 8 c-32 6
-42 13 -42 28 0 16 -7 19 -56 19 -45 0 -61 -5 -80 -22 -13 -13 -24 -31 -24
-40 0 -16 -11 -18 -77 -18 -49 -1 -87 -6 -103 -15 -33 -19 -60 -19 -60 0 0 8
-4 15 -10 15 -5 0 -10 -18 -10 -40 0 -38 -2 -40 -30 -40 -16 0 -44 -9 -62 -20
-21 -12 -51 -20 -80 -20 -43 0 -48 -2 -48 -22 -1 -20 -6 -17 -40 22 -34 39
-39 42 -40 23 0 -20 -5 -23 -40 -23 -33 0 -40 -3 -40 -20 0 -14 7 -20 23 -20
22 -1 22 -1 2 -16 -18 -13 -20 -13 -23 0 -3 13 -19 16 -83 16 l-79 0 0 -80 0
-80 -40 0 c-45 0 -51 -13 -17 -41 22 -18 22 -18 -46 -19 -54 0 -72 -4 -90 -20
-12 -11 -28 -19 -37 -17 -15 3 -95 -37 -115 -58 -5 -5 -19 -28 -29 -50 -14
-29 -21 -35 -23 -22 -7 30 -23 18 -23 -17 0 -31 -3 -34 -35 -40 -30 -6 -41 -3
-66 19 -17 14 -35 23 -39 20 -5 -3 -12 -1 -15 5 -5 8 -12 7 -23 -2 -18 -16
-20 -18 76 152 35 63 87 156 114 205 28 50 54 95 58 100 4 6 25 43 45 84 36
71 37 73 19 91 -11 10 -105 69 -211 132 l-191 114 331 42 c183 23 440 56 572
72 132 17 319 41 415 54 96 13 187 24 201 25 24 1 31 -10 89 -136z m195 -430
c8 -20 13 -38 10 -41 -3 -3 -5 0 -5 6 0 7 -6 12 -14 12 -9 0 -13 8 -10 23 2
12 2 16 -2 10 -8 -18 -21 -16 -28 3 -3 8 -2 12 3 9 5 -3 12 -1 16 5 10 16 14
12 30 -27z m179 -389 c3 -8 2 -12 -4 -9 -6 3 -10 10 -10 16 0 14 7 11 14 -7z
m50 -123 c-6 -6 -11 1 -18 29 l-7 25 15 -25 c8 -14 12 -27 10 -29z m36 -71 c0
-5 -2 -10 -4 -10 -3 0 -8 5 -11 10 -3 6 -1 10 4 10 6 0 11 -4 11 -10z m-248
-32 c10 1 17 -2 17 -6 -3 -20 3 -32 16 -32 8 0 15 -5 15 -10 0 -6 -26 4 -57
22 -73 40 -74 41 -38 33 17 -4 38 -7 47 -7z m263 -37 c3 -5 2 -12 -3 -15 -5
-3 -9 1 -9 9 0 17 3 19 12 6z m-396 -48 c-75 -124 -79 -129 -79 -105 0 13 4
20 10 17 9 -6 12 1 9 22 0 3 6 10 15 15 9 5 14 13 11 19 -4 5 -1 9 4 9 6 0 11
4 11 10 0 9 31 50 38 50 2 0 -7 -17 -19 -37z m206 27 c-6 -9 14 -14 41 -11 7
1 14 -7 17 -18 3 -14 12 -19 31 -17 15 2 29 -1 33 -7 3 -6 1 -7 -5 -3 -19 11
-14 -5 6 -21 13 -11 -57 23 -131 64 -7 4 0 23 9 23 3 0 2 -4 -1 -10z m-292
-175 c-3 -9 -8 -14 -10 -11 -3 3 -2 9 2 15 9 16 15 13 8 -4z m-1716 -147 c-3
-8 -6 -5 -6 6 -1 11 2 17 5 13 3 -3 4 -12 1 -19z m-10 -110 c-3 -8 -6 -5 -6 6
-1 11 2 17 5 13 3 -3 4 -12 1 -19z"/>
<path d="M8360 13100 c0 -5 5 -10 11 -10 5 0 7 5 4 10 -3 6 -8 10 -11 10 -2 0
-4 -4 -4 -10z"/>
<path d="M8320 13091 c0 -10 19 -25 25 -20 1 2 -3 10 -11 17 -8 7 -14 8 -14 3z"/>
<path d="M8118 13073 c7 -3 16 -2 19 1 4 3 -2 6 -13 5 -11 0 -14 -3 -6 -6z"/>
<path d="M8373 13067 c-28 -12 -30 -27 -4 -27 10 0 22 7 25 16 8 22 5 24 -21
11z"/>
<path d="M8400 13032 c0 -14 6 -22 16 -22 14 0 15 3 3 18 -7 9 -15 19 -16 21
-2 2 -3 -5 -3 -17z"/>
<path d="M8409 12998 c-1 -2 -3 -13 -4 -24 -2 -16 2 -20 16 -17 11 3 19 10 19
15 0 6 -7 7 -16 4 -12 -4 -15 -2 -10 9 4 12 0 23 -5 13z"/>
<path d="M8420 12930 c0 -5 5 -10 11 -10 5 0 7 5 4 10 -3 6 -8 10 -11 10 -2 0
-4 -4 -4 -10z"/>
<path d="M7255 12661 c-3 -6 -3 -11 2 -11 4 0 0 -5 -9 -11 -9 -5 -15 -15 -12
-22 2 -7 -4 -21 -15 -31 -11 -10 -18 -23 -15 -28 3 -5 -1 -17 -8 -26 -24 -28
-28 -39 -14 -39 8 0 12 6 9 14 -3 7 2 13 10 13 9 0 22 8 29 18 7 10 21 21 31
25 19 7 22 22 7 32 -5 3 -10 11 -10 16 0 6 4 8 8 5 9 -6 10 39 1 49 -4 3 -10
2 -14 -4z"/>
<path d="M8570 12642 c0 -5 7 -9 15 -9 8 0 12 4 9 9 -3 4 -9 8 -15 8 -5 0 -9
-4 -9 -8z"/>
<path d="M7815 12570 c-3 -5 1 -10 9 -10 9 0 16 5 16 10 0 6 -4 10 -9 10 -6 0
-13 -4 -16 -10z"/>
<path d="M7133 12313 c9 -2 23 -2 30 0 6 3 -1 5 -18 5 -16 0 -22 -2 -12 -5z"/>
<path d="M7128 12243 c6 -2 18 -2 25 0 6 3 1 5 -13 5 -14 0 -19 -2 -12 -5z"/>
<path d="M4344 11828 c-35 -67 -85 -286 -54 -238 5 8 12 11 16 8 9 -10 -6
-148 -17 -148 -16 0 -32 -53 -21 -71 6 -9 10 -47 10 -85 l-1 -69 -12 55 -12
55 -1 -68 c0 -38 -3 -71 -6 -75 -10 -9 -96 -10 -96 0 0 5 12 8 28 7 60 -5 62
-3 62 51 0 28 -4 50 -10 50 -5 0 -10 -4 -10 -10 0 -5 -13 -10 -30 -10 -23 0
-30 -4 -30 -20 0 -17 -7 -20 -40 -20 -33 0 -40 -3 -40 -20 0 -15 -7 -20 -26
-20 -23 0 -25 -3 -19 -22 4 -13 9 -35 12 -50 5 -28 26 -37 38 -18 3 6 11 10
16 10 5 0 -2 -12 -16 -27 -14 -15 -25 -31 -25 -36 0 -16 -64 -93 -102 -122
-21 -17 -53 -43 -71 -58 -17 -15 -44 -35 -59 -44 -16 -10 -28 -22 -28 -28 0
-6 -9 -21 -20 -33 -26 -28 -60 -29 -60 -3 0 13 -8 21 -22 23 -19 2 -24 10 -26
46 -2 23 -7 42 -13 42 -5 0 -9 18 -9 40 0 51 -18 53 -22 3 -2 -31 -7 -39 -25
-41 -21 -3 -23 1 -23 36 0 23 5 42 12 44 10 4 9 13 -4 39 -9 19 -22 49 -28 66
-7 18 -21 42 -31 55 -11 12 -17 28 -14 36 3 7 5 20 5 28 0 9 10 14 28 14 16 0
34 8 42 20 10 14 26 20 52 20 31 0 38 4 38 20 0 17 7 20 40 20 22 0 54 -9 72
-20 41 -25 48 -25 48 0 0 19 7 20 90 20 72 0 90 3 90 14 0 8 -4 18 -10 21 -5
3 -10 17 -10 31 0 23 3 24 57 24 31 0 53 3 49 7 -3 4 -26 6 -49 5 -23 0 -36 1
-29 4 6 3 10 10 6 15 -3 5 7 9 23 10 22 1 17 4 -22 15 -65 19 -270 6 -236 -15
5 -4 -7 -7 -27 -7 -20 0 -57 -11 -82 -23 -25 -13 -55 -29 -68 -35 -12 -6 -20
-17 -17 -25 3 -8 0 -11 -8 -8 -17 6 -52 -19 -38 -28 6 -3 20 -4 30 0 21 6 51
-3 51 -16 0 -5 -24 -9 -53 -9 -48 0 -55 -3 -65 -25 -6 -14 -16 -25 -22 -25 -6
0 -3 11 6 25 15 23 15 25 0 19 -9 -3 -16 -11 -16 -18 0 -6 -12 -22 -25 -35
-24 -22 -95 -134 -95 -149 0 -4 -7 -20 -15 -36 -8 -16 -18 -42 -20 -59 -3 -16
-10 -37 -14 -46 -5 -9 -7 -39 -5 -66 3 -39 2 -46 -6 -30 -9 18 -10 17 -5 -5 2
-14 5 -36 5 -50 0 -18 3 -21 9 -11 7 11 9 11 13 0 3 -8 11 6 17 30 9 32 15 41
24 32 6 -6 24 -11 39 -11 15 0 28 -4 28 -10 0 -5 -18 -10 -40 -10 l-40 0 -2
-72 c-1 -63 -2 -68 -8 -33 -7 36 -7 35 -4 -10 9 -114 13 -238 6 -213 -5 20
-11 25 -21 19 -11 -7 -4 -28 34 -107 39 -79 63 -113 119 -169 39 -39 89 -79
111 -89 22 -11 45 -25 52 -32 7 -7 39 -23 70 -35 62 -23 205 -32 291 -16 l42
7 0 -67 c0 -104 12 -233 21 -233 5 0 9 29 9 64 0 59 3 67 31 95 35 35 46 38
52 14 4 -17 5 -17 6 0 2 25 51 24 51 -2 0 -24 16 -36 23 -19 3 7 6 3 6 -10 1
-13 5 -21 10 -17 16 9 20 -23 26 -175 3 -80 7 -159 10 -177 6 -43 -15 -58 -84
-59 -31 0 -75 -4 -98 -9 -40 -7 -43 -10 -43 -39 0 -44 29 -146 115 -401 41
-121 85 -260 99 -310 l25 -90 0 928 1 928 -25 59 c-38 90 -55 175 -55 276 0
111 12 176 46 257 23 53 28 83 35 217 5 85 20 254 34 374 14 120 23 221 21
223 -2 3 -12 -10 -22 -29z m-431 -455 c-7 -2 -19 -2 -25 0 -7 3 -2 5 12 5 14
0 19 -2 13 -5z m-76 -9 c-3 -3 -12 -4 -19 -1 -8 3 -5 6 6 6 11 1 17 -2 13 -5z
m-187 -44 c8 -5 11 -10 5 -10 -5 0 -17 5 -25 10 -8 5 -10 10 -5 10 6 0 17 -5
25 -10z m-140 -131 c0 -5 -3 -9 -7 -9 -5 0 -23 -14 -40 -31 -41 -37 -43 -25
-4 18 16 18 26 35 23 38 -4 3 1 3 11 -1 9 -3 17 -10 17 -15z m593 4 c-7 -2
-13 -9 -13 -15 0 -6 7 -8 14 -5 11 4 13 1 9 -11 -6 -15 -5 -15 10 -3 15 12 17
12 11 -2 -8 -21 -43 -17 -50 5 -6 21 2 38 19 37 9 0 9 -2 0 -6z m-763 -318 c0
-8 -2 -15 -4 -15 -2 0 -6 7 -10 15 -3 8 -1 15 4 15 6 0 10 -7 10 -15z m1 -62
c-12 -20 -14 -14 -5 12 4 9 9 14 11 11 3 -2 0 -13 -6 -23z m123 -69 c23 -9 20
-24 -4 -24 -11 0 -20 7 -20 15 0 17 2 18 24 9z m246 -34 c0 -5 -4 -10 -10 -10
-5 0 -10 5 -10 10 0 6 5 10 10 10 6 0 10 -4 10 -10z m-150 -190 c-17 -22 -34
-40 -36 -40 -2 0 -4 18 -4 40 0 39 1 40 36 40 l36 0 -32 -40z m279 -130 c53
-76 114 -114 179 -111 25 1 49 7 54 14 4 7 6 3 5 -11 -1 -12 -8 -22 -17 -22
-12 -1 -12 -3 3 -14 11 -8 17 -27 17 -50 0 -29 -8 -44 -40 -76 -44 -44 -50
-56 -22 -45 12 4 14 3 6 -5 -7 -7 -19 -7 -42 1 -17 6 -39 9 -49 6 -12 -3 -8
-5 10 -6 15 0 27 -5 27 -11 0 -5 7 -10 15 -10 8 0 15 -4 15 -10 0 -5 -18 -10
-40 -10 -29 0 -40 4 -40 15 0 11 -12 15 -42 16 l-43 2 40 7 c22 4 32 8 23 9
-9 0 -21 9 -26 18 -8 13 -23 16 -70 14 -53 -2 -62 1 -80 24 -12 15 -30 25 -46
25 -24 0 -26 4 -26 40 0 29 4 40 15 40 11 0 15 11 15 40 0 28 4 40 15 40 8 0
19 9 25 19 5 11 19 23 30 26 11 4 20 15 20 27 0 15 5 19 19 15 17 -4 18 -2 11
19 -5 13 -8 24 -6 24 2 0 22 -27 45 -60z m326 9 c-3 -5 0 -7 7 -4 8 3 20 -10
31 -31 21 -43 18 -52 -8 -24 l-19 21 -13 -23 c-11 -21 -12 -18 -13 30 0 34 4
51 10 47 6 -4 8 -11 5 -16z m-485 -259 c0 -5 -9 -10 -19 -10 -11 0 -23 -4 -26
-10 -7 -12 -35 -13 -35 -2 0 8 45 29 68 31 6 1 12 -3 12 -9z m107 -66 c-3 -3
-12 -4 -19 -1 -8 3 -5 6 6 6 11 1 17 -2 13 -5z m273 -14 c-27 -21 -45 -26 -35
-9 6 9 41 27 55 28 3 0 -6 -8 -20 -19z m-330 0 c-8 -5 -19 -10 -25 -10 -5 0
-3 5 5 10 8 5 20 10 25 10 6 0 3 -5 -5 -10z m103 -17 c-7 -2 -19 -2 -25 0 -7
3 -2 5 12 5 14 0 19 -2 13 -5z"/>
<path d="M3290 10677 c0 -40 4 -67 10 -67 7 0 9 21 4 63 -9 83 -14 85 -14 4z"/>
<path d="M3308 10576 c-3 -14 -2 -23 2 -21 5 3 6 -13 3 -35 -3 -24 -2 -40 5
-40 5 0 9 23 8 54 -2 60 -11 81 -18 42z"/>
<path d="M3337 10547 c-11 -29 -9 -43 4 -30 6 6 9 19 7 29 -3 18 -4 18 -11 1z"/>
<path d="M2912 9009 c-54 -20 -46 -157 29 -494 81 -361 113 -438 252 -609 99
-121 138 -175 202 -281 27 -44 50 -82 52 -84 2 -2 36 27 76 65 39 39 93 83
120 99 38 24 49 38 58 70 34 134 83 244 150 332 21 29 39 56 39 60 0 5 -64 74
-142 154 -103 104 -172 165 -245 215 -66 44 -152 119 -240 205 -269 263 -299
287 -351 268z"/>
<path d="M2295 8905 c-51 -50 -17 -145 53 -145 65 0 108 70 78 128 -26 50 -91
58 -131 17z"/>
<path d="M2594 8230 c-71 -16 -114 -71 -114 -143 0 -60 20 -99 67 -132 111
-75 262 37 229 169 -9 37 -62 93 -94 100 -15 4 -34 8 -42 10 -8 2 -29 0 -46
-4z"/>
<path d="M6764 7715 c-7 -5 -35 -59 -62 -120 -96 -212 -169 -381 -193 -442
-17 -46 -29 -63 -42 -63 -11 0 -114 23 -231 50 -117 28 -231 50 -255 50 -66 0
-95 -22 -163 -123 -34 -50 -130 -187 -214 -303 -83 -116 -199 -278 -256 -360
-58 -82 -178 -252 -268 -379 -337 -474 -502 -709 -506 -720 -3 -6 -35 -24 -71
-40 -88 -38 -192 -138 -230 -221 -35 -76 -43 -180 -19 -252 27 -80 81 -131
249 -235 83 -52 226 -142 317 -199 91 -58 203 -129 250 -158 47 -30 101 -66
121 -82 28 -21 48 -28 83 -28 99 0 18 -149 998 1818 679 1362 888 1790 881
1801 -9 14 -39 16 -193 16 -107 0 -188 -4 -196 -10z m333 -45 c-2 -3 -364
-729 -806 -1615 -441 -885 -839 -1679 -883 -1763 -87 -163 -105 -181 -154
-151 -13 8 -78 50 -146 93 -68 43 -256 162 -418 264 -162 101 -308 196 -323
211 -79 73 -102 208 -51 309 39 79 130 167 212 205 63 29 74 39 123 110 30 42
257 363 504 712 248 349 514 726 593 837 79 112 153 214 165 227 42 45 55 45
281 -10 116 -28 234 -53 262 -56 61 -7 60 -8 132 167 51 126 183 422 200 450
7 12 37 15 161 15 83 0 150 -2 148 -5z"/>
<path d="M4584 5010 c-41 -16 -74 -68 -74 -117 0 -39 5 -50 38 -82 21 -20 89
-67 151 -105 105 -63 117 -68 158 -63 62 7 103 48 110 109 8 72 -12 97 -140
177 -151 93 -185 105 -243 81z m196 -112 c63 -39 120 -78 127 -87 19 -25 15
-72 -9 -98 -29 -31 -71 -29 -121 6 -23 16 -79 50 -124 76 -56 33 -85 57 -91
74 -11 30 1 68 26 87 36 28 75 16 192 -58z"/>
<path d="M9913 7706 c-26 -23 -28 -30 -31 -115 l-4 -91 -361 -1 c-199 -1 -794
-1 -1322 0 -528 0 -968 -2 -978 -5 -18 -6 -81 -131 -907 -1799 -362 -731 -476
-965 -484 -992 l-7 -23 2713 0 c2671 0 2713 0 2745 20 68 41 63 -72 61 1382
l-3 1315 -28 36 c-40 53 -61 61 -167 62 -52 0 -177 2 -277 3 l-183 2 0 69 c0
79 -9 110 -41 140 -22 20 -31 21 -360 21 l-338 0 -28 -24z m707 -45 c5 -11 10
-51 10 -90 l0 -71 -350 0 -350 0 0 78 c0 47 5 83 12 90 9 9 98 12 340 12 313
0 328 -1 338 -19z m620 -231 c52 -28 50 33 50 -1363 0 -1101 -2 -1296 -14
-1313 -14 -19 -55 -19 -2695 -22 -1475 -1 -2681 2 -2681 6 0 9 319 657 867
1762 203 410 391 790 417 846 l47 100 1995 -2 c1385 -2 2000 -7 2014 -14z"/>
<path d="M3671 7624 c0 -11 3 -14 6 -6 3 7 2 16 -1 19 -3 4 -6 -2 -5 -13z"/>
<path d="M2984 7571 c-90 -55 -55 -201 48 -201 71 0 118 44 118 110 0 44 -19
77 -55 95 -43 20 -73 19 -111 -4z"/>
<path d="M16480 7369 c-25 -11 -73 -37 -107 -57 l-63 -37 0 -325 0 -326 23 -1
c32 -3 67 -48 67 -88 l0 -33 83 24 c182 55 373 169 414 248 68 131 -101 518
-260 595 -53 26 -98 26 -157 0z"/>
<path d="M11674 6861 c-48 -22 -91 -74 -100 -119 -6 -31 -8 -32 -63 -32 l-56
0 3 -1080 3 -1080 -2243 0 c-2073 0 -2252 1 -2365 17 -110 15 -132 16 -230 3
-72 -10 -254 -16 -543 -20 l-435 -5 0 -92 c0 -51 1 -190 3 -308 l2 -215 209 0
208 0 7 61 c12 115 81 250 181 353 73 75 154 125 260 162 70 24 96 28 200 28
171 1 273 -32 402 -129 114 -85 206 -235 237 -387 9 -42 16 -80 16 -83 0 -3
156 -4 347 -3 l348 3 7 55 c32 260 260 462 538 477 210 11 389 -76 511 -250
50 -72 99 -199 99 -258 l0 -29 1283 0 1282 0 22 90 c33 138 83 230 178 326
135 137 277 198 460 198 181 0 331 -59 451 -179 105 -105 173 -230 198 -365
l12 -65 428 -3 428 -2 34 34 34 34 0 261 c0 291 -4 310 -61 330 -18 6 -47 11
-65 11 l-34 0 0 305 0 305 -44 108 c-24 59 -88 215 -144 347 -55 132 -137 330
-182 440 -224 544 -262 628 -310 675 -25 25 -67 57 -95 70 l-50 25 -665 2
c-633 3 -667 2 -706 -16z m1392 -50 c50 -23 110 -75 130 -113 17 -32 208 -488
326 -778 44 -107 129 -310 189 -451 l109 -255 0 -307 0 -306 -67 -3 -68 -3 -3
-307 -2 -308 -265 0 -265 0 -5 28 c-14 62 -67 199 -97 249 -78 129 -206 236
-352 295 -80 33 -83 33 -241 33 -155 -1 -163 -2 -243 -32 -152 -58 -298 -178
-369 -304 -34 -60 -83 -190 -83 -219 0 -34 -28 -50 -86 -50 l-54 0 0 1373 c0
1286 1 1374 18 1407 36 72 10 70 737 70 610 0 652 -2 691 -19z"/>
<path d="M11995 6583 c-49 -25 -94 -74 -105 -113 -13 -46 -13 -924 0 -969 14
-50 50 -97 91 -120 35 -20 53 -21 343 -21 356 0 344 2 447 -95 45 -42 79 -66
101 -70 18 -3 140 -5 270 -3 221 3 238 4 264 24 42 31 65 67 71 111 4 34 -10
75 -105 304 -195 468 -279 672 -316 764 -48 118 -76 158 -128 184 -43 20 -56
21 -474 21 -371 -1 -433 -3 -459 -17z m904 -49 c22 -9 47 -27 56 -40 8 -13 53
-117 99 -231 46 -115 146 -354 221 -533 168 -399 161 -380 145 -421 -27 -64
-48 -69 -305 -69 -260 0 -239 -5 -337 87 -90 84 -83 83 -434 83 -339 0 -353 2
-389 63 -19 31 -20 53 -20 507 0 529 -3 507 68 550 30 19 53 20 444 20 353 0
418 -2 452 -16z"/>
<path d="M12170 5142 c-153 -2 -170 -8 -170 -53 0 -43 24 -49 180 -49 163 0
184 7 178 58 -5 41 -31 47 -188 44z"/>
<path d="M14482 6024 c-29 -20 -52 -66 -52 -104 0 -28 -2 -30 -40 -30 -60 0
-88 -17 -102 -63 -9 -31 -9 -47 3 -80 14 -42 14 -42 70 -45 l57 -3 6 -42 c20
-144 156 -1609 156 -1683 0 -51 -3 -56 -41 -91 -133 -121 -109 -318 48 -390
46 -21 65 -25 115 -20 69 6 139 47 178 103 l23 34 323 0 c202 0 324 -4 324
-10 0 -18 63 -81 102 -101 162 -83 352 42 335 221 -6 68 -28 114 -76 158 -40
37 -40 39 -16 247 8 66 41 377 74 690 34 314 68 638 78 721 l17 152 49 5 c58
5 85 28 94 80 11 71 -28 117 -100 117 -30 0 -34 3 -45 44 -7 28 -24 54 -47 75
l-36 31 -342 0 c-286 0 -346 -2 -363 -15 -25 -19 -48 -19 -64 0 -19 23 -695
22 -728 -1z m725 -56 c11 -10 26 -18 33 -18 7 0 22 8 33 18 17 15 52 17 357
20 l338 3 20 -28 c11 -15 23 -38 26 -50 l7 -23 -776 0 -775 0 6 28 c4 15 13
37 21 50 l14 23 338 -3 c306 -3 341 -5 358 -20z m941 -140 c13 -13 16 -47 6
-72 -6 -14 -94 -16 -899 -16 -491 0 -900 3 -909 6 -18 7 -20 31 -6 68 l10 26
893 0 c681 0 896 -3 905 -12z m-132 -155 c-11 -40 -108 -923 -183 -1670 l-6
-63 -67 0 c-82 0 -140 -27 -187 -88 -33 -44 -59 -136 -48 -172 6 -20 2 -20
-298 -20 l-304 0 -6 60 c-8 73 -25 109 -77 159 -46 44 -133 76 -180 66 -25 -5
-30 -3 -30 12 0 29 -39 483 -55 643 -8 80 -19 204 -25 275 -6 72 -22 234 -35
360 -13 127 -26 268 -30 315 -3 47 -8 97 -11 113 l-6 27 777 0 c735 0 776 -1
771 -17z m-1285 -1879 c33 -17 62 -72 53 -101 -19 -59 -56 -93 -103 -93 -82 0
-130 100 -80 164 36 46 80 56 130 30z m1077 -4 c78 -48 60 -163 -31 -185 -60
-15 -117 36 -117 105 0 43 16 69 53 85 43 19 56 18 95 -5z"/>
<path d="M15086 5203 c-93 -147 -116 -185 -116 -191 0 -4 13 -15 29 -25 16 -9
48 -33 72 -53 l42 -35 33 53 c19 29 46 77 61 105 16 29 31 53 34 53 8 0 92
-140 87 -144 -1 -2 -14 -9 -28 -16 -24 -13 -21 -14 55 -30 l80 -16 20 23 c11
12 38 55 59 94 31 58 35 71 20 64 -45 -19 -57 -11 -100 59 -23 39 -50 76 -60
83 -12 9 -56 13 -141 13 l-123 0 -24 -37z"/>
<path d="M15553 4891 c-17 -11 -50 -31 -72 -46 l-42 -26 52 -97 c28 -53 58
-107 67 -120 l15 -23 -94 3 -94 3 -3 33 c-2 17 -7 32 -12 32 -17 0 -111 -140
-103 -153 28 -46 98 -137 105 -137 4 0 8 11 8 25 0 25 0 25 98 25 l99 0 51 71
c29 40 64 96 78 125 25 51 25 53 8 86 -16 32 -125 218 -128 218 0 0 -15 -9
-33 -19z"/>
<path d="M14850 4885 c0 -2 5 -15 11 -29 10 -21 6 -34 -35 -101 l-47 -77 30
-63 c32 -70 105 -183 129 -202 11 -9 55 -13 134 -13 l119 0 -3 93 -3 92 -122
3 c-68 1 -123 5 -123 8 0 3 19 37 41 75 41 68 42 69 65 54 13 -8 25 -15 28
-15 6 0 -21 101 -39 144 l-15 36 -85 0 c-47 0 -85 -2 -85 -5z"/>
<path d="M17581 5980 c-109 -50 -171 -136 -178 -249 -12 -169 113 -303 282
-304 174 -1 307 138 292 305 -10 116 -85 217 -187 253 -60 21 -155 19 -209 -5z"/>
<path d="M3789 5893 c-13 -16 -12 -17 4 -4 9 7 17 15 17 17 0 8 -8 3 -21 -13z"/>
<path d="M4115 5600 c-10 -11 -22 -17 -28 -13 -6 4 -7 1 -2 -6 5 -9 13 -7 31
10 13 12 24 24 24 26 0 7 -8 2 -25 -17z"/>
<path d="M4054 5559 c-3 -6 -14 -9 -24 -6 -11 3 -21 -2 -24 -10 -3 -8 -2 -11
3 -8 5 3 12 1 15 -4 5 -7 -7 -17 -34 -26 -3 -1 -12 -5 -21 -9 -9 -4 -20 -6
-25 -4 -5 2 -11 -1 -14 -7 -3 -6 10 -11 28 -12 25 -1 32 2 28 12 -3 8 0 12 7
9 7 -2 30 14 52 36 21 22 34 40 28 40 -7 0 -15 -5 -19 -11z"/>
<path d="M3950 5460 c-8 -5 -18 -6 -22 -4 -4 3 -5 -2 -2 -10 5 -14 -5 -21 -28
-18 -3 1 -9 -5 -12 -13 -3 -8 -2 -14 2 -14 19 3 25 -2 12 -11 -8 -5 -10 -10
-5 -10 11 0 79 79 73 85 -2 2 -10 0 -18 -5z"/>
<path d="M3875 5359 c-4 -6 -5 -12 -2 -15 2 -3 7 2 10 11 7 17 1 20 -8 4z"/>
<path d="M6583 4406 c-90 -22 -164 -65 -239 -140 -112 -112 -164 -233 -164
-385 0 -149 41 -256 140 -363 99 -109 242 -170 395 -170 351 0 601 324 520
671 -45 188 -194 336 -390 386 -70 18 -190 18 -262 1z m206 -282 c36 -10 67
-29 101 -62 137 -133 84 -356 -100 -417 -67 -22 -134 -15 -202 22 -175 95
-168 347 12 439 71 35 116 40 189 18z"/>
<path d="M12300 4404 c-144 -38 -268 -140 -334 -274 -103 -211 -74 -441 77
-606 108 -119 232 -174 393 -174 311 0 544 230 544 537 0 152 -48 270 -150
374 -106 108 -234 160 -391 158 -46 0 -109 -7 -139 -15z m266 -299 c144 -84
173 -276 61 -393 -152 -158 -414 -67 -435 151 -12 119 73 237 193 268 49 13
136 1 181 -26z"/>
<path d="M8560 4349 c-124 -22 -265 -120 -323 -227 -122 -224 -39 -510 182
-626 280 -147 620 23 674 338 29 168 -55 354 -203 452 -82 55 -223 81 -330 63z
m158 -254 c120 -51 168 -190 105 -306 -37 -69 -87 -102 -163 -107 -139 -10
-235 77 -234 215 0 50 6 69 27 102 64 96 171 135 265 96z"/>
<path d="M10878 1403 c7 -3 16 -2 19 1 4 3 -2 6 -13 5 -11 0 -14 -3 -6 -6z"/>
<path d="M9569 1314 c12 -26 68 -74 84 -74 7 0 -2 9 -19 19 -17 10 -41 32 -53
47 -14 18 -18 21 -12 8z"/>
<path d="M10807 1284 c7 -3 10 -11 7 -18 -6 -17 23 -29 32 -14 4 6 3 8 -4 4
-6 -3 -13 -2 -17 4 -3 6 4 14 17 19 21 9 19 10 -12 10 -19 -1 -30 -3 -23 -5z"/>
<path d="M10860 1238 c0 -4 4 -8 9 -8 6 0 12 4 15 8 3 5 -1 9 -9 9 -8 0 -15
-4 -15 -9z"/>
</g>
</svg>
