<?xml version="1.0" standalone="no"?>
<!DOCTYPE svg PUBLIC "-//W3C//DTD SVG 20010904//EN"
 "http://www.w3.org/TR/2001/REC-SVG-20010904/DTD/svg10.dtd">
<svg version="1.0" xmlns="http://www.w3.org/2000/svg"
 width="2048.000000pt" height="2048.000000pt" viewBox="0 0 2048.000000 2048.000000"
 preserveAspectRatio="xMidYMid meet">

<g transform="translate(0.000000,2048.000000) scale(0.100000,-0.100000)"
fill="#000000" stroke="none">
<path d="M12875 14373 c-290 -35 -514 -115 -745 -268 -288 -189 -500 -466
-611 -795 -54 -162 -70 -258 -76 -455 -6 -182 1 -265 33 -436 l17 -86 -84 -80
c-46 -44 -214 -203 -374 -353 -546 -515 -810 -765 -1040 -985 -456 -434 -623
-593 -785 -745 -90 -85 -221 -209 -290 -275 -222 -213 -684 -650 -731 -693
l-46 -42 -62 25 c-81 33 -241 71 -365 86 -139 17 -412 6 -541 -21 -626 -132
-1093 -589 -1215 -1189 -48 -239 -47 -476 6 -708 34 -151 70 -191 130 -144 35
27 342 313 657 611 143 135 276 254 296 264 44 24 124 25 167 3 34 -17 125
-111 504 -516 146 -155 276 -301 289 -322 28 -47 31 -130 7 -176 -13 -26 -353
-356 -666 -648 -266 -248 -301 -285 -298 -318 3 -28 9 -34 58 -54 170 -67 375
-97 605 -90 433 14 787 168 1096 477 230 230 368 490 440 830 39 182 31 516
-17 705 -5 19 127 149 542 536 170 158 1017 954 1388 1304 192 182 422 397
510 479 239 222 656 616 779 735 l108 105 77 -27 c443 -155 968 -97 1377 153
365 223 628 599 722 1030 29 138 42 395 24 533 -12 103 -57 300 -77 339 -15
30 -53 45 -77 31 -8 -4 -214 -196 -458 -427 -244 -230 -462 -432 -483 -447
-33 -25 -49 -29 -101 -29 -71 0 -126 28 -184 96 -19 21 -164 174 -322 339
-158 165 -308 324 -333 354 -55 65 -76 138 -58 199 13 44 63 94 562 562 184
173 347 327 363 342 34 33 35 70 2 96 -32 26 -212 70 -355 88 -104 13 -289 17
-365 7z"/>
<path d="M11080 14199 c0 -15 -20 -57 -92 -189 -18 -33 -25 -56 -19 -58 6 -2
9 -8 6 -12 -3 -5 -12 -7 -20 -4 -9 4 -18 -2 -22 -12 -6 -17 -100 -141 -130
-172 -24 -25 -78 -105 -76 -113 2 -5 -4 -6 -12 -3 -8 4 -15 1 -15 -5 0 -6 -15
-25 -32 -41 -28 -25 -31 -31 -18 -39 12 -8 12 -13 3 -22 -10 -10 -14 -9 -19 4
-5 14 -15 9 -58 -29 -28 -26 -50 -52 -48 -58 2 -6 1 -8 -3 -4 -4 4 -42 -19
-84 -51 -91 -69 -219 -155 -244 -164 -18 -7 -15 -27 4 -27 6 0 7 5 3 12 -5 8
0 9 14 6 12 -4 25 -2 28 3 3 5 -1 9 -8 9 -7 0 -5 5 6 11 14 9 21 8 27 -2 8
-11 13 -10 27 7 13 16 23 19 40 13 27 -10 28 -19 2 -47 -14 -14 -16 -22 -8
-22 7 -1 1 -8 -15 -16 -23 -12 -26 -18 -17 -34 10 -19 7 -20 -50 -20 l-60 0 0
-40 c0 -36 3 -40 25 -40 14 0 25 -4 25 -10 0 -5 -18 -10 -40 -10 -34 0 -40 -3
-40 -22 0 -36 -43 -117 -62 -118 -11 0 -18 -8 -18 -20 0 -16 -7 -20 -35 -20
-37 0 -85 -18 -85 -32 0 -4 9 -8 20 -8 32 0 23 -16 -17 -28 -26 -8 -39 -8 -44
-1 -5 8 -12 8 -26 1 -14 -8 -23 -8 -31 0 -8 8 -9 5 -5 -11 3 -12 1 -21 -6 -21
-6 0 -11 6 -11 14 0 8 -5 16 -12 18 -20 7 2 28 30 28 43 0 57 15 27 28 -44 20
-115 15 -142 -10 -17 -16 -34 -22 -57 -20 -24 2 -35 -2 -40 -13 -4 -11 -12
-14 -26 -10 -14 5 -20 2 -20 -9 0 -9 -5 -16 -11 -16 -5 0 -7 -4 -4 -10 4 -6
-1 -7 -11 -3 -14 5 -16 3 -11 -10 4 -9 10 -24 13 -32 3 -8 2 -15 -4 -15 -5 0
-12 -7 -15 -14 -4 -9 -1 -13 6 -10 8 3 12 -11 11 -48 -2 -58 12 -87 54 -114
24 -15 24 -13 -5 16 -37 36 -51 89 -34 127 6 13 8 30 5 36 -4 7 -4 9 1 5 4 -4
19 2 33 12 52 41 137 17 167 -47 16 -33 16 -41 4 -77 -9 -25 -27 -49 -49 -65
-19 -13 -26 -21 -15 -17 11 4 24 8 29 9 17 3 43 32 38 41 -3 5 0 6 7 2 9 -6 8
-14 -4 -32 -8 -13 -12 -24 -8 -23 30 5 32 -3 11 -41 -13 -22 -29 -40 -35 -40
-7 0 -13 -4 -13 -8 0 -5 -18 -17 -40 -28 -22 -10 -40 -22 -40 -27 0 -10 -91
-97 -101 -97 -5 0 -26 -18 -48 -40 -22 -22 -42 -40 -46 -40 -9 0 -33 -20 -71
-59 -29 -30 -37 -33 -56 -23 -28 13 -88 21 -88 11 0 -10 210 -47 310 -54 159
-12 371 19 560 81 551 181 943 639 1046 1224 23 128 22 371 -1 505 -17 101
-77 323 -95 353 -8 15 -9 15 -10 1z m-125 -309 c-3 -5 -12 -10 -18 -10 -7 0
-6 4 3 10 19 12 23 12 15 0z m-235 -301 c0 -6 -4 -8 -9 -5 -5 3 -14 -1 -21 -9
-7 -8 -17 -15 -23 -15 -6 0 0 11 13 25 22 23 40 25 40 4z m37 15 c-3 -3 -12
-4 -19 -1 -8 3 -5 6 6 6 11 1 17 -2 13 -5z m-132 -93 c-3 -6 -11 -11 -17 -11
-6 0 -6 6 2 15 14 17 26 13 15 -4z m-12 -31 c8 0 8 -3 0 -11 -9 -9 -16 -7 -30
7 -17 17 -17 18 0 11 10 -4 24 -7 30 -7z m37 -29 c0 -4 -19 -8 -42 -10 -53 -3
-58 -8 -32 -29 11 -9 26 -25 33 -34 12 -16 10 -18 -28 -18 -26 0 -40 4 -36 10
8 12 -5 13 -23 1 -11 -6 -10 -10 4 -15 21 -8 12 -18 -21 -22 -29 -3 -33 16 -9
40 8 9 13 20 10 25 -3 5 1 15 10 22 13 11 15 11 12 -2 -1 -7 2 -15 7 -16 6 -2
10 10 10 26 -1 26 1 28 37 25 20 -2 40 1 43 6 7 11 25 4 25 -9z m30 -1 c0 -5
-5 -10 -11 -10 -5 0 -7 5 -4 10 3 6 8 10 11 10 2 0 4 -4 4 -10z m-190 -56 c0
-1 -3 -9 -6 -18 -8 -22 -19 -20 -21 2 -1 10 5 19 13 19 8 0 14 -1 14 -3z m-94
-99 c1 -8 -2 -13 -7 -9 -5 3 -6 10 -3 16 5 7 1 9 -9 5 -11 -4 -14 -2 -10 9 7
18 25 4 29 -21z m14 -155 c10 -19 8 -20 -40 -20 -43 0 -50 3 -50 20 0 17 7 20
40 20 29 0 42 -5 50 -20z m-809 -437 c13 -16 12 -17 -3 -4 -17 13 -22 21 -14
21 2 0 10 -8 17 -17z m233 -197 c-3 -9 -10 -16 -15 -16 -5 0 -4 9 3 20 14 22
21 20 12 -4z"/>
<path d="M10275 13220 c-16 -7 -14 -8 12 -7 17 1 29 5 26 10 -5 9 -12 8 -38
-3z"/>
<path d="M10020 13134 c-58 -29 -96 -53 -85 -53 11 0 31 8 45 19 14 11 35 20
48 20 12 0 22 4 22 9 0 11 56 32 64 24 3 -4 6 -1 6 6 0 7 4 10 8 7 5 -3 9 1 9
9 0 19 5 21 -117 -41z"/>
<path d="M10089 13113 c-9 -10 -3 -13 30 -13 48 0 55 16 11 22 -18 3 -35 -1
-41 -9z"/>
<path d="M9865 13066 l-30 -13 32 0 c18 0 30 4 27 8 -2 4 2 10 8 12 7 3 9 6 3
6 -5 0 -23 -6 -40 -13z"/>
<path d="M9698 13013 c-10 -2 -18 -9 -18 -14 0 -6 7 -6 18 -1 9 5 24 12 32 15
13 5 13 5 0 5 -8 0 -23 -2 -32 -5z"/>
<path d="M9625 12790 c3 -5 8 -10 11 -10 2 0 4 5 4 10 0 6 -5 10 -11 10 -5 0
-7 -4 -4 -10z"/>
<path d="M9320 12759 c46 -28 59 -48 60 -86 0 -64 -44 -112 -107 -114 l-28 -1
27 -10 c23 -8 33 -6 54 11 15 11 30 18 34 16 5 -3 11 -1 15 4 3 6 12 8 19 5 7
-3 18 1 24 9 10 12 8 14 -14 11 l-26 -2 21 19 c12 11 18 25 14 32 -5 9 -3 9 8
0 12 -9 14 -6 14 22 0 18 -3 31 -7 28 -5 -2 -13 7 -19 21 -8 17 -27 30 -60 40
-64 21 -71 20 -29 -5z m101 -71 c11 -20 10 -21 -3 -11 -8 7 -18 10 -22 6 -4
-4 -4 0 0 10 8 22 11 22 25 -5z"/>
<path d="M9545 12700 c3 -5 11 -10 16 -10 6 0 7 5 4 10 -3 6 -11 10 -16 10 -6
0 -7 -4 -4 -10z"/>
<path d="M9190 12575 c14 -8 32 -14 40 -14 8 0 0 6 -19 14 -42 19 -54 19 -21
0z"/>
<path d="M8820 12286 c0 -3 9 -10 20 -16 11 -6 20 -8 20 -6 0 3 -9 10 -20 16
-11 6 -20 8 -20 6z"/>
<path d="M8870 12256 c0 -3 9 -10 20 -16 11 -6 20 -8 20 -6 0 3 -9 10 -20 16
-11 6 -20 8 -20 6z"/>
<path d="M8940 12222 c0 -6 13 -18 30 -27 34 -18 40 -18 40 -4 0 5 -5 7 -12 3
-8 -5 -9 -1 -4 12 6 15 5 16 -5 7 -10 -10 -16 -9 -31 4 -10 9 -18 11 -18 5z"/>
<path d="M9031 12181 c-7 -5 -2 -12 15 -20 17 -7 31 -8 36 -3 17 17 -29 36
-51 23z"/>
<path d="M9091 12146 c8 -8 149 -56 163 -55 6 0 -19 11 -56 24 -92 32 -114 38
-107 31z"/>
<path d="M14316 9715 c-11 -8 -16 -15 -10 -15 5 0 18 7 28 15 11 8 16 15 10
15 -5 0 -18 -7 -28 -15z"/>
<path d="M14010 9545 c-14 -8 -20 -14 -14 -15 5 0 19 7 30 15 24 18 16 19 -16
0z"/>
<path d="M14617 9508 c13 -22 12 -38 -2 -38 -8 0 -17 -4 -20 -10 -10 -15 28 1
43 18 19 24 14 4 -21 -82 -33 -81 -47 -94 -59 -54 -4 16 -6 10 -7 -22 0 -35 2
-42 10 -30 9 12 10 12 5 -3 -3 -10 -6 -23 -6 -28 0 -6 -5 -7 -12 -3 -7 4 -8 3
-4 -5 4 -6 -7 -42 -24 -79 l-32 -67 -14 28 c-18 33 -26 35 -24 5 3 -36 0 -44
-10 -28 -8 12 -11 13 -19 1 -6 -9 -11 -10 -15 -2 -4 6 -2 11 3 11 6 0 11 9 11
20 0 11 -4 20 -10 20 -5 0 -10 -7 -10 -15 0 -8 -4 -15 -8 -15 -5 0 -19 -9 -32
-20 -27 -24 -40 -25 -40 -5 0 8 -7 15 -15 15 -8 0 -15 -4 -15 -10 0 -5 -11
-12 -24 -16 -25 -6 -48 -43 -62 -98 -9 -38 -28 -59 -81 -93 -25 -15 -43 -35
-43 -45 0 -10 -4 -18 -10 -18 -5 0 -10 4 -10 9 0 20 -59 -11 -62 -32 -2 -12
-9 -21 -16 -19 -8 1 -11 -2 -7 -8 3 -6 17 -8 31 -6 14 3 22 1 19 -5 -4 -5 -11
-7 -16 -4 -5 4 -9 -4 -9 -17 0 -18 -2 -20 -10 -8 -7 11 -10 11 -10 2 0 -7 -5
-10 -11 -7 -5 4 19 -33 55 -82 257 -345 324 -785 181 -1183 -148 -412 -473
-700 -909 -805 -55 -14 -102 -23 -104 -20 -7 7 -50 514 -62 734 l-10 183 54
72 c31 39 91 114 136 166 44 52 80 103 80 112 0 16 -44 58 -62 58 -16 0 -93
-77 -159 -159 l-64 -81 -6 63 c-4 34 -10 143 -14 242 -8 197 -13 215 -66 215
-48 0 -59 -29 -60 -165 -1 -66 -4 -174 -8 -240 l-6 -120 -117 113 c-65 61
-124 112 -132 112 -15 0 -56 -46 -56 -63 0 -6 66 -77 146 -157 l145 -147 -2
-84 c-2 -89 -5 -130 -44 -573 -14 -153 -27 -281 -29 -283 -8 -8 -241 54 -322
86 -178 69 -365 208 -484 361 -36 46 -73 92 -82 102 -10 10 -18 21 -17 25 0 4
-5 9 -12 12 -8 2 -9 -1 -3 -10 7 -12 5 -12 -9 0 -18 14 -23 26 -8 16 21 -12
19 14 -4 51 -14 21 -25 35 -25 31 0 -4 8 -20 17 -35 16 -24 16 -25 1 -14 -14
11 -17 10 -23 -8 -4 -12 -1 -27 5 -35 8 -9 10 -32 7 -59 -4 -32 -2 -48 9 -57
11 -9 14 -7 15 12 0 20 2 21 8 6 6 -17 9 -16 35 10 25 24 27 25 17 6 -6 -13
-15 -23 -19 -23 -4 0 -6 -18 -4 -39 3 -30 -1 -45 -17 -62 -22 -23 -29 -69 -11
-69 6 0 10 -18 10 -40 0 -22 -4 -40 -10 -40 -5 0 -10 -21 -10 -46 0 -41 -5
-51 -40 -85 -22 -22 -40 -43 -40 -49 0 -5 -18 -10 -40 -10 -34 0 -40 -3 -40
-21 0 -24 -22 -49 -44 -49 -9 0 -16 -4 -16 -9 0 -4 -28 -11 -62 -13 -86 -8
-118 -24 -118 -60 0 -26 -3 -28 -40 -28 -29 0 -40 -4 -40 -15 0 -19 -15 -19
-45 1 -13 9 -28 13 -34 10 -13 -8 -62 15 -55 25 3 5 0 9 -5 9 -6 0 -11 -5 -11
-11 0 -5 -4 -8 -9 -5 -5 4 -12 0 -14 -6 -4 -9 -6 -10 -6 -1 -1 6 4 15 9 18 6
3 10 14 9 23 0 11 -3 12 -6 5 -8 -21 -41 -15 -54 9 -11 21 -12 21 -25 3 -8
-10 -14 -26 -14 -35 0 -22 46 -65 55 -51 8 14 25 14 25 0 0 -5 -4 -7 -10 -4
-5 3 -10 2 -10 -2 0 -5 9 -14 20 -21 12 -7 19 -16 16 -21 -6 -9 29 -41 38 -35
3 2 4 1 1 -3 -6 -7 344 -363 356 -363 8 0 224 120 325 181 45 27 84 49 87 49
3 0 68 -29 144 -64 76 -35 181 -78 234 -96 l95 -31 43 -157 c23 -86 51 -187
62 -225 l20 -67 347 2 347 3 16 55 c10 30 39 129 65 220 l49 165 100 36 c109
39 297 122 329 145 11 8 29 14 39 14 10 0 88 -42 175 -94 86 -51 176 -103 200
-115 l43 -22 240 232 c132 128 245 241 250 250 10 20 -17 77 -141 289 l-80
136 49 107 c28 58 71 164 96 234 26 70 48 129 50 131 1 2 97 30 211 63 115 33
214 65 219 70 11 11 20 626 10 666 -6 24 3 21 -338 125 l-108 33 -38 115 c-22
63 -64 168 -95 234 -31 65 -56 122 -56 126 0 5 21 44 46 87 86 145 174 305
174 317 0 7 -58 69 -128 139 -117 115 -157 149 -135 115z m-2677 -2338 c0 -5
-4 -10 -10 -10 -5 0 -10 5 -10 10 0 6 5 10 10 10 6 0 10 -4 10 -10z m328 -297
c5 -18 -16 -16 -35 3 -15 14 -14 16 7 12 13 -1 25 -9 28 -15z m-1038 -338 c11
-13 8 -15 -16 -14 -22 1 -24 3 -9 7 l20 5 -20 8 c-15 6 -16 8 -4 8 9 1 22 -6
29 -14z m855 5 c-3 -5 -12 -10 -18 -10 -7 0 -6 4 3 10 19 12 23 12 15 0z
m-120 -50 c-3 -5 -10 -10 -16 -10 -5 0 -9 5 -9 10 0 6 7 10 16 10 8 0 12 -4 9
-10z m-655 -38 c13 -11 11 -12 -9 -4 -13 5 -26 17 -27 28 -2 16 -1 17 10 4 6
-8 18 -21 26 -28z m555 -2 c-28 -12 -37 -12 -30 0 3 6 16 10 28 9 21 0 21 -1
2 -9z m-78 -16 c-3 -3 -12 -4 -19 -1 -8 3 -5 6 6 6 11 1 17 -2 13 -5z"/>
<path d="M14600 9440 c-11 -7 -12 -12 -3 -21 8 -8 14 -6 22 10 12 22 5 27 -19
11z"/>
<path d="M14562 9395 c0 -16 2 -22 5 -12 2 9 2 23 0 30 -3 6 -5 -1 -5 -18z"/>
<path d="M14510 9248 c0 -9 5 -20 10 -23 13 -8 13 5 0 25 -8 13 -10 13 -10 -2z"/>
<path d="M13680 8990 c0 -5 5 -10 11 -10 5 0 7 5 4 10 -3 6 -8 10 -11 10 -2 0
-4 -4 -4 -10z"/>
<path d="M13867 8113 c-5 -81 -7 -89 -34 -111 -15 -13 -22 -21 -15 -18 7 4 12
1 12 -8 0 -8 -5 -16 -10 -18 -7 -2 -8 -19 -4 -46 5 -34 10 -41 24 -37 13 4 17
-2 20 -32 6 -66 4 -148 -4 -168 -13 -29 -17 -73 -6 -56 33 54 36 233 5 307
-14 35 -14 41 2 73 15 33 33 201 21 201 -3 0 -8 -39 -11 -87z"/>
<path d="M11752 7860 c0 -14 2 -19 5 -12 2 6 2 18 0 25 -3 6 -5 1 -5 -13z"/>
<path d="M13817 7582 c-10 -10 -14 -22 -10 -27 5 -4 1 -6 -7 -3 -8 2 -25 -8
-37 -23 -24 -28 -31 -55 -11 -43 7 4 8 3 4 -5 -6 -9 -11 -9 -22 0 -11 9 -14 8
-14 -4 0 -8 -7 -20 -15 -27 -9 -8 -15 -8 -15 -2 0 6 5 12 12 14 9 3 9 6 -1 12
-8 5 -14 1 -18 -13 -3 -12 -11 -21 -18 -21 -7 0 -12 -7 -11 -16 0 -9 -6 -19
-14 -21 -13 -4 -13 -3 0 7 10 8 11 10 2 8 -8 -2 -12 -7 -10 -11 5 -11 -34 -34
-72 -42 -39 -9 -112 -7 -120 3 -11 15 -51 32 -74 32 -13 0 -43 -7 -66 -15 -40
-14 -82 -14 -125 0 -11 3 -4 -3 15 -14 57 -33 173 -55 251 -47 161 15 315 111
379 236 22 44 22 49 -3 22z m-27 -46 c0 -2 -8 -10 -17 -17 -16 -13 -17 -12 -4
4 13 16 21 21 21 13z"/>
<path d="M13683 7505 c0 -6 6 -12 12 -12 6 0 12 6 12 12 0 6 -6 12 -12 12 -6
0 -12 -6 -12 -12z"/>
<path d="M13615 7430 c-3 -6 1 -7 9 -4 18 7 21 14 7 14 -6 0 -13 -4 -16 -10z"/>
<path d="M11860 7301 c0 -6 5 -13 10 -16 6 -3 10 1 10 9 0 9 -4 16 -10 16 -5
0 -10 -4 -10 -9z"/>
<path d="M11376 6895 c-3 -9 -6 -24 -6 -33 0 -13 4 -11 16 7 11 15 13 26 6 33
-6 6 -12 4 -16 -7z"/>
<path d="M11306 6773 c-6 -14 -5 -15 5 -6 7 7 10 15 7 18 -3 3 -9 -2 -12 -12z"/>
<path d="M11780 6710 c0 -5 5 -10 10 -10 6 0 10 5 10 10 0 6 -4 10 -10 10 -5
0 -10 -4 -10 -10z"/>
<path d="M11230 6582 c0 -14 6 -22 16 -22 14 0 15 3 3 18 -7 9 -15 19 -16 21
-2 2 -3 -5 -3 -17z"/>
<path d="M8930 3443 c-62 -23 -79 -95 -34 -140 22 -22 32 -25 67 -20 48 7 87
44 87 82 0 48 -73 96 -120 78z"/>
<path d="M10471 3098 c0 -390 3 -408 59 -446 29 -19 45 -22 99 -20 61 3 65 5
72 31 10 39 -2 76 -31 90 l-25 13 -5 339 -5 340 -82 3 -83 3 1 -353z"/>
<path d="M13177 3443 c-4 -3 -7 -182 -7 -398 0 -291 3 -394 12 -403 14 -14 97
-16 132 -2 25 9 26 13 26 93 0 69 3 87 18 100 10 10 23 17 28 17 5 0 36 -43
68 -95 32 -52 65 -100 72 -106 14 -11 158 -14 175 -3 11 6 -3 32 -108 192 -40
62 -74 117 -76 121 -1 4 35 56 81 114 45 58 85 113 88 122 6 14 -4 15 -82 13
l-88 -3 -80 -112 c-45 -62 -85 -113 -90 -113 -5 0 -6 90 -3 221 5 159 4 226
-4 235 -12 15 -149 20 -162 7z"/>
<path d="M6570 3380 c-19 -19 -20 -33 -20 -380 l0 -360 75 0 75 0 2 281 3 282
34 -114 c18 -63 56 -178 83 -256 l50 -143 79 0 c43 0 81 5 84 10 4 6 44 121
91 257 46 135 86 249 89 252 3 2 2 -124 -1 -282 l-7 -286 28 -7 c15 -4 53 -3
84 2 l56 9 3 351 c2 343 2 352 -19 377 -19 25 -25 27 -105 27 -67 0 -88 -4
-101 -18 -10 -9 -42 -87 -72 -172 -30 -85 -69 -195 -86 -244 l-31 -88 -78 235
c-42 130 -86 247 -97 261 -19 24 -26 26 -110 26 -76 0 -92 -3 -109 -20z"/>
<path d="M11027 3393 c-4 -7 142 -683 159 -735 5 -16 19 -18 99 -18 84 0 95 2
105 20 10 19 88 331 110 443 7 32 14 56 16 54 3 -3 25 -101 48 -218 59 -291
61 -297 92 -305 33 -9 153 1 165 13 12 12 169 687 169 726 l0 27 -80 0 -79 0
-6 -32 c-3 -18 -26 -148 -49 -288 -24 -140 -46 -248 -49 -240 -3 8 -18 76 -32
150 -39 194 -84 382 -97 397 -14 17 -142 18 -155 1 -11 -14 -68 -245 -103
-418 -32 -157 -34 -159 -54 -50 -9 52 -30 169 -47 260 -16 91 -32 177 -35 193
-6 27 -6 27 -89 27 -46 0 -86 -3 -88 -7z"/>
<path d="M8455 3208 c-16 -6 -44 -21 -61 -34 -35 -25 -44 -23 -44 13 0 22 -3
23 -70 23 -49 0 -70 -4 -71 -12 -1 -7 0 -130 0 -273 1 -143 1 -266 1 -272 0
-9 23 -13 80 -13 l80 0 0 186 c0 187 4 215 39 241 17 13 79 17 105 7 35 -13
41 -47 46 -239 l5 -190 80 0 80 0 3 205 c2 133 -1 219 -8 245 -14 48 -53 91
-99 111 -39 16 -122 17 -166 2z"/>
<path d="M9420 3204 c-19 -8 -42 -22 -52 -30 -20 -19 -38 -11 -38 17 0 17 -7
19 -70 19 l-70 0 -2 -247 c-4 -392 -4 -507 0 -525 3 -15 15 -18 82 -18 62 0
79 3 84 16 3 9 6 65 6 125 l0 108 46 -24 c62 -33 135 -34 194 -2 93 49 143
155 143 299 0 78 -3 94 -32 152 -33 67 -62 95 -120 114 -47 16 -129 14 -171
-4z m99 -130 c71 -50 68 -251 -4 -298 -37 -24 -99 -20 -131 7 -25 22 -28 31
-32 110 -6 119 2 153 41 177 39 24 94 26 126 4z"/>
<path d="M9967 3200 c-81 -26 -100 -45 -94 -94 8 -56 17 -60 78 -31 111 51
209 24 209 -58 l0 -34 -72 -6 c-186 -14 -292 -111 -258 -236 32 -122 221 -164
319 -72 26 25 31 26 31 11 0 -42 59 -62 128 -44 22 6 22 7 22 208 0 110 -5
218 -11 239 -15 54 -62 103 -116 121 -61 21 -164 19 -236 -4z m184 -320 c22
-12 25 -46 8 -84 -16 -34 -90 -63 -127 -50 -31 11 -48 50 -39 86 11 43 110 73
158 48z"/>
<path d="M12223 3201 c-71 -24 -113 -59 -148 -122 -28 -50 -30 -62 -30 -154 0
-114 17 -166 76 -224 83 -82 243 -100 360 -41 60 31 114 101 134 175 33 122
-3 272 -78 329 -74 56 -213 72 -314 37z m175 -126 c18 -15 34 -41 41 -69 34
-134 -16 -256 -103 -256 -73 0 -119 69 -119 175 0 110 42 174 115 175 25 0 46
-8 66 -25z"/>
<path d="M12943 3176 c-25 -25 -47 -46 -49 -46 -1 0 -4 17 -6 38 l-3 37 -70 0
-70 0 -3 -279 c-2 -217 1 -281 10 -288 7 -4 39 -8 70 -8 87 0 88 2 88 193 0
178 4 193 60 222 16 8 50 15 75 15 l46 0 -3 78 -3 77 -48 3 c-46 3 -51 1 -94
-42z"/>
<path d="M13878 3205 c-86 -28 -138 -110 -124 -194 9 -58 36 -83 146 -137 96
-48 105 -54 105 -80 0 -59 -96 -69 -193 -20 -27 14 -52 22 -56 19 -3 -4 -6
-34 -6 -69 l0 -62 42 -17 c50 -20 180 -22 235 -5 50 16 99 54 118 90 8 16 15
52 15 81 0 88 -34 124 -172 178 -67 27 -82 42 -74 75 12 47 96 57 168 20 50
-26 59 -20 56 39 -3 49 -5 53 -40 70 -51 25 -161 31 -220 12z"/>
<path d="M7537 3204 c-4 -4 -7 -104 -7 -223 0 -269 12 -304 113 -346 67 -28
155 -16 217 30 43 31 50 31 50 0 0 -26 1 -26 73 -23 l72 3 3 260 c1 143 0 270
-3 283 -5 22 -9 23 -83 20 l-77 -3 -5 -190 c-3 -104 -9 -198 -13 -207 -11 -21
-67 -48 -100 -48 -14 0 -35 9 -48 19 -23 19 -24 24 -29 223 l-5 203 -75 3
c-42 1 -79 0 -83 -4z"/>
<path d="M8908 3203 c-16 -2 -28 -7 -29 -11 0 -4 -2 -127 -4 -274 -3 -218 -1
-269 10 -275 7 -5 45 -7 84 -5 l71 4 0 278 c0 244 -2 279 -16 284 -16 6 -70 6
-116 -1z"/>
</g>
</svg>
